<svg width="32" height="32" viewBox="0 0 32 32" fill="none" xmlns="http://www.w3.org/2000/svg">
<path d="M19.613 8.82581L21.2135 7.22531H23.6377V9.64956L22.0372 11.25L23.363 12.5758L24.5752 11.3636L25.7872 12.5758L27.113 11.25L25.5127 9.64956V7.22531H27.9368L29.5372 8.82581L30.863 7.5L29.651 6.28781L30.863 5.07581L29.5372 3.75L27.9368 5.35031H25.5127V2.92613L27.113 1.32581L25.7872 0L24.5752 1.212L23.363 0L22.0372 1.32581L23.6377 2.92613V5.35031H21.2135L19.613 3.75L18.2872 5.07581L19.4993 6.28781L18.2872 7.5L19.613 8.82581Z" fill="#D90429"/>
<path d="M30.5125 18.875C30.5125 16.8073 28.8302 15.125 26.7625 15.125H19.3383L9.02576 4.8125H1.13745V15.125V15.375V28.25H5.91926C6.35476 30.387 8.2487 32 10.5125 32C12.7762 32 14.6701 30.387 15.1056 28.25H30.5125V18.875ZM28.6375 18.875H25.825H24.8875H3.01245V17H26.7625C27.7963 17 28.6375 17.8412 28.6375 18.875ZM28.6375 20.75V22.625H26.7625V20.75H28.6375ZM8.24908 6.6875L16.6866 15.125H13.7133L7.15076 8.5625H3.01245V6.6875H8.24908ZM3.01245 10.4375H6.37414L11.0617 15.125H3.01245V10.4375ZM10.5125 30.125C8.96164 30.125 7.69995 28.8634 7.69995 27.3125C7.69995 25.7617 8.96164 24.5 10.5125 24.5C12.0633 24.5 13.325 25.7617 13.325 27.3125C13.325 28.8634 12.0633 30.125 10.5125 30.125ZM15.1056 26.375C14.6701 24.2381 12.7762 22.625 10.5125 22.625C8.2487 22.625 6.35483 24.2381 5.91926 26.375H3.01245V20.75H24.8875V24.5H28.6375V26.375H15.1056Z" fill="#D90429"/>
</svg>
