<svg width="32" height="32" viewBox="0 0 32 32" fill="none" xmlns="http://www.w3.org/2000/svg">
<g clip-path="url(#clip0_1_58)">
<path d="M15.9686 -0.000152588C9.64458 -0.000152588 4.49976 5.14467 4.49976 11.4687C4.49976 13.5024 5.03956 15.5007 6.06056 17.2476C6.95925 18.7849 8.20975 20.0977 9.6978 21.0716V28.0209H11.408C11.7139 30.265 13.6419 32.0002 15.9686 32.0002C18.2953 32.0002 20.2231 30.265 20.5292 28.0209H22.2394V21.0716C23.7275 20.0977 24.978 18.7849 25.8767 17.2476C26.8977 15.5007 27.4375 13.5024 27.4375 11.4687C27.4375 5.14467 22.2927 -0.000152588 15.9686 -0.000152588V-0.000152588ZM20.8266 19.7425L20.3644 20.0142V22.3958H11.5728V20.0142L11.1107 19.7425C9.69487 18.9092 8.50809 17.7193 7.67923 16.3013C6.82595 14.8413 6.37477 13.1704 6.37477 11.4687C6.37477 6.17862 10.6785 1.87487 15.9686 1.87487C21.2587 1.87487 25.5625 6.17862 25.5625 11.4687C25.5625 13.1704 25.1113 14.8413 24.258 16.3013C23.4291 17.7193 22.2426 18.9092 20.8266 19.7425V19.7425ZM20.3644 26.1458H11.5728V24.2708H20.3647V26.1458H20.3644ZM15.9686 30.1251C14.6788 30.1251 13.5958 29.2255 13.3126 28.0209H18.6246C18.3414 29.2255 17.2584 30.1251 15.9686 30.1251Z" fill="#D90429"/>
<path d="M20.5372 8.22599L21.5814 7.18179L20.2557 5.85585L19.2115 6.90005C18.5379 6.42055 17.754 6.08656 16.9063 5.94325V4.46863H15.0313V5.94325C14.1836 6.08656 13.3997 6.4208 12.7261 6.90029L11.6819 5.85585L10.356 7.18179L11.4004 8.22599C10.9209 8.89958 10.5869 9.68352 10.4434 10.5312H8.96875V12.4062H10.4434C10.5869 13.2539 10.9209 14.0378 11.4004 14.7114L10.356 15.7556L11.6819 17.0815L12.7261 16.0371C13.3997 16.5166 14.1836 16.8506 15.0313 16.9941V18.4688H16.9063V16.9941C17.754 16.8506 18.5379 16.5166 19.2115 16.0371L20.2557 17.0813L21.5814 15.7556L20.5372 14.7114C21.0167 14.0378 21.3507 13.2539 21.494 12.4062H22.9689V10.5312H21.4943C21.3507 9.68352 21.0167 8.89958 20.5372 8.22599V8.22599ZM15.9688 15.198C13.9126 15.198 12.2395 13.5251 12.2395 11.4687C12.2395 9.41228 13.9126 7.73941 15.9688 7.73941C18.025 7.73941 19.6979 9.41252 19.6979 11.4687C19.6979 13.5249 18.0252 15.198 15.9688 15.198Z" fill="#D90429"/>
<path d="M15.0312 10.5312H16.9063V12.4062H15.0312V10.5312Z" fill="#D90429"/>
</g>
<defs>
<clipPath id="clip0_1_58">
<rect width="32.0003" height="32.0003" fill="white" transform="translate(-0.000244141 -0.000152588)"/>
</clipPath>
</defs>
</svg>
