<svg version="1.1" id="Layer_1" xmlns="http://www.w3.org/2000/svg" xmlns:xlink="http://www.w3.org/1999/xlink" x="0px" y="0px"
	 width="100%" viewBox="0 0 488 488" enable-background="new 0 0 488 488" xml:space="preserve">
<path fill="#FFFEFE" opacity="1.000000" stroke="none" 
	d="
M1.000001,273.000000 
	C1.000000,182.373169 1.000000,91.746338 1.000000,1.059751 
	C163.555344,1.059751 326.110718,1.059751 489.000000,1.059751 
	C489.000000,78.354446 489.000000,155.709381 488.670868,233.395370 
	C487.224518,228.411499 483.165619,227.129333 478.611786,227.032028 
	C469.963013,226.847229 461.289673,227.276199 452.662598,226.799118 
	C446.986298,226.485229 443.258667,227.605743 442.514191,233.948837 
	C441.722198,233.849487 441.406769,233.799469 441.077515,233.318756 
	C441.310547,230.639938 441.557373,228.391800 442.167419,226.029816 
	C446.337952,214.775375 451.270935,204.920258 462.220520,198.354294 
	C469.910034,193.743271 466.644836,177.565231 457.303040,172.268982 
	C457.303040,175.407959 457.329437,178.187714 457.297424,180.966797 
	C457.234436,186.433838 455.209930,188.300659 449.211975,188.478043 
	C442.872650,188.665512 440.573212,186.857544 440.182037,181.285217 
	C439.966827,178.219543 439.851776,175.146851 439.676544,171.789246 
	C431.902283,176.390488 428.119843,187.132980 432.310242,195.154694 
	C436.569977,203.309189 436.169952,210.986786 433.468567,219.188629 
	C432.651855,221.668198 432.557831,224.385773 431.794586,227.164047 
	C427.624023,241.409866 423.762512,255.478165 419.991669,269.570709 
	C419.441010,271.628571 419.322815,273.802155 418.690979,276.111877 
	C415.915283,284.522583 414.197205,293.170135 405.756470,297.921783 
	C405.237732,298.213837 404.954651,298.960938 404.614380,299.527802 
	C401.575165,304.590790 402.394196,311.570618 406.491119,315.624146 
	C410.633270,319.722321 417.281311,320.686737 422.099457,317.888336 
	C427.647949,314.665649 430.480225,308.487091 428.132904,302.611511 
	C425.798218,296.767426 425.345734,291.191467 427.152496,285.206573 
	C428.044037,282.253418 428.267365,279.098541 428.976471,275.680420 
	C430.188019,272.010345 431.216187,268.694824 432.780640,265.494720 
	C433.316864,268.906494 433.316864,272.202789 433.316864,275.612335 
	C436.625488,275.612335 440.544342,275.612335 444.508026,275.612335 
	C446.221283,269.354980 447.869690,263.334503 449.429718,257.636841 
	C456.690521,257.636841 463.506439,257.636841 470.774323,257.636841 
	C469.232086,263.952881 467.843414,269.640198 466.402344,275.541992 
	C470.737061,275.541992 474.503448,275.541992 478.720642,275.541992 
	C480.325317,268.877686 482.694763,262.374542 483.255646,255.718964 
	C483.761841,249.712692 486.993988,245.187012 489.000000,240.000000 
	C489.000000,322.961945 489.000000,405.923859 489.000000,488.942902 
	C326.446014,488.942902 163.891998,488.942902 1.000000,488.942902 
	C1.000000,418.312256 1.000000,347.623993 1.457954,276.399353 
	C3.081886,275.870483 4.282030,275.699615 5.408128,275.915314 
	C11.376791,277.058624 14.830591,275.041840 15.318865,268.628784 
	C15.396399,267.610443 16.674269,265.871857 17.444380,265.845551 
	C23.983654,265.621765 30.533863,265.717590 37.457027,265.717590 
	C36.548439,269.526978 35.832195,272.529907 35.032078,275.884521 
	C38.578724,275.884521 41.742290,276.040710 44.874538,275.796051 
	C45.908745,275.715240 47.521626,274.779541 47.753082,273.930328 
	C50.984783,262.073364 54.396481,250.243607 56.968533,238.236740 
	C58.530117,230.946930 54.995430,227.219833 47.472816,226.980652 
	C40.650761,226.763748 33.813656,226.816971 26.988028,226.968781 
	C19.122648,227.143738 13.872533,231.205521 11.149884,238.491043 
	C10.223129,240.970963 9.702572,243.600616 8.951345,246.148575 
	C6.311494,255.102173 3.652023,264.049988 1.000001,273.000000 
M219.111557,289.392639 
	C218.618439,290.757721 218.125305,292.122833 217.474960,293.923157 
	C215.944824,290.106903 214.627411,286.821198 213.251907,283.390656 
	C210.040207,286.565918 209.809860,293.570709 212.630066,296.381470 
	C212.759903,294.128021 212.885284,291.952057 213.074677,288.664764 
	C214.623337,292.296509 215.711044,294.847229 217.141434,298.201599 
	C218.080414,296.868988 218.474579,296.506256 218.626663,296.060883 
	C219.427643,293.715118 220.167511,291.348511 221.405396,288.475220 
	C221.767029,291.306824 222.128662,294.138397 222.490295,296.970001 
	C222.785721,296.917236 223.081146,296.864502 223.376572,296.811737 
	C223.376572,292.300232 223.376572,287.788727 223.376572,283.277252 
	C222.884567,283.161652 222.392578,283.046082 221.900574,282.930481 
	C221.111084,284.913666 220.321594,286.896820 219.111557,289.392639 
M277.523682,175.026550 
	C276.081512,177.435318 274.087494,179.677322 273.299744,182.283875 
	C270.849976,190.389694 268.633270,198.582764 266.755890,206.839691 
	C265.125580,214.010056 268.245239,218.457123 275.552673,218.731491 
	C286.846283,219.155518 298.167511,218.843246 309.725128,218.843246 
	C310.713379,215.055374 311.657684,211.435883 312.774628,207.154602 
	C301.357300,207.154602 290.601532,207.154602 279.861542,207.154602 
	C279.866058,200.482620 280.011505,200.310242 285.677429,200.301651 
	C294.172424,200.288788 302.668945,200.378998 311.160736,200.213943 
	C312.481750,200.188278 314.529053,199.353516 314.947998,198.352173 
	C316.134735,195.515564 316.650970,192.398438 317.584503,188.801636 
	C306.063110,188.801636 295.162964,188.801636 284.236053,188.801636 
	C284.178101,183.403534 286.253448,181.304245 291.491241,181.512024 
	C300.789368,181.880920 310.112701,181.615601 319.635895,181.615601 
	C320.692474,177.693756 321.672150,174.057343 322.739655,170.094940 
	C311.035217,170.094940 299.710876,169.751221 288.429688,170.298264 
	C284.911255,170.468872 281.509521,173.046982 277.523682,175.026550 
M294.621246,240.229401 
	C296.529694,239.574936 298.427216,238.394730 300.348389,238.354965 
	C309.803162,238.159195 319.264130,238.266006 328.994049,238.266006 
	C330.010834,234.435501 330.961365,230.854507 331.986176,226.993729 
	C320.165314,226.993729 308.849792,226.757202 297.550354,227.081116 
	C290.605286,227.280182 285.369324,231.103409 283.181732,237.653763 
	C280.346191,246.144516 277.943817,254.826569 276.077820,263.580353 
	C274.445435,271.238068 277.548309,275.247009 285.350067,275.550629 
	C296.458099,275.982941 307.595520,275.660492 318.962158,275.660492 
	C320.002594,271.825714 320.993347,268.174072 322.150879,263.907806 
	C310.792328,263.907806 299.898285,263.907806 288.506409,263.907806 
	C289.090088,261.258209 289.538086,259.224701 290.024963,257.014526 
	C301.496277,257.014526 312.627899,257.014526 323.968567,257.014526 
	C324.960693,253.210632 325.902191,249.600876 326.987946,245.437897 
	C315.397217,245.437897 304.458191,245.437897 293.297791,245.437897 
	C293.657745,243.688828 293.923767,242.396103 294.621246,240.229401 
M369.163055,184.774353 
	C367.271088,192.010834 365.220032,199.210464 363.532288,206.494263 
	C361.872009,213.659698 364.861298,218.383972 372.029358,218.687805 
	C383.468597,219.172668 394.943390,218.817444 406.596802,218.817444 
	C407.546692,214.922195 408.416473,211.355408 409.472931,207.023041 
	C397.810394,207.023041 387.072449,207.023041 376.370972,207.023041 
	C376.101685,201.953903 377.702820,199.934387 382.673340,200.185745 
	C390.982117,200.605896 399.328979,200.372681 407.656464,200.225677 
	C409.068970,200.200745 411.320679,199.580765 411.709167,198.631714 
	C412.917419,195.680222 413.416168,192.438263 414.300812,188.861435 
	C402.822754,188.861435 392.029083,188.861435 381.223877,188.861435 
	C381.550781,182.240372 382.133057,181.633560 388.100128,181.619659 
	C396.096954,181.601044 404.103424,181.387161 412.086456,181.719818 
	C415.728088,181.871567 417.200348,180.502182 417.756104,177.218857 
	C418.140259,174.949295 418.787201,172.724228 419.432465,169.988693 
	C409.052002,169.988693 399.087799,169.957367 389.123840,169.997086 
	C378.110321,170.041000 373.095978,173.643814 369.163055,184.774353 
M103.209564,208.892044 
	C104.095970,209.763214 105.790337,210.709000 105.718071,211.491669 
	C105.496658,213.889633 104.597130,216.224960 103.921516,218.732330 
	C108.229294,218.732330 112.145554,218.732330 116.314873,218.732330 
	C119.554359,206.520386 123.030846,194.568268 125.828506,182.459290 
	C127.663559,174.516708 124.053947,170.325439 115.921135,170.071503 
	C109.272247,169.863861 102.601784,169.817719 95.958282,170.103958 
	C88.016296,170.446167 82.283134,174.423660 79.994339,182.136749 
	C76.412697,194.206650 73.265564,206.405472 69.860878,218.817596 
	C74.086784,218.817596 78.562889,220.037323 81.472885,218.426987 
	C83.751038,217.166306 84.088692,212.398987 85.400200,208.890976 
	C90.981308,208.890976 96.623100,208.890976 103.209564,208.892044 
M169.662643,208.052658 
	C168.726639,211.550491 167.790634,215.048325 166.806381,218.726471 
	C171.111298,218.726471 175.016830,218.726471 179.037704,218.726471 
	C179.768295,216.102234 180.264572,213.640457 181.180511,211.346222 
	C181.576416,210.354599 182.818130,209.041397 183.711426,209.013321 
	C190.092163,208.812820 196.482132,208.906296 203.177414,208.906296 
	C202.299088,212.635620 201.595627,215.622498 200.834549,218.854034 
	C205.107880,218.854034 208.908920,218.854034 213.088593,218.854034 
	C216.350693,206.506973 219.870972,194.216019 222.776657,181.781448 
	C224.413269,174.777832 220.818619,170.506042 213.531982,170.128784 
	C207.222107,169.802109 200.883133,169.938599 194.558731,170.014236 
	C184.464737,170.134933 178.802826,174.428665 176.049118,184.155502 
	C173.877747,191.825348 171.926437,199.557480 169.662643,208.052658 
M325.552185,207.501541 
	C314.423492,207.499664 314.420258,207.498932 312.084137,217.800232 
	C312.023590,218.067123 312.229614,218.394470 312.319855,218.696426 
	C312.635651,218.789047 312.951202,218.961807 313.267242,218.962631 
	C323.087799,218.988174 332.908722,219.053833 342.728851,218.992783 
	C353.372437,218.926636 359.003662,214.615021 362.004730,204.430267 
	C365.206299,193.565094 361.849609,188.974594 350.574249,188.878433 
	C344.811096,188.829269 339.047180,188.869812 333.136169,188.869812 
	C332.770630,183.994370 333.928925,181.537292 338.754242,181.641190 
	C347.405853,181.827469 356.065979,181.775833 364.718323,181.606232 
	C366.072327,181.579697 368.186890,180.722733 368.597565,179.704422 
	C369.783539,176.763824 370.278931,173.544739 371.136688,170.065033 
	C369.129333,170.065033 367.809723,170.063171 366.490082,170.065323 
	C357.002380,170.080765 347.508179,169.885895 338.028992,170.178253 
	C330.109619,170.422501 324.661499,174.472321 321.871155,182.049820 
	C317.033051,195.188461 320.362061,200.192337 334.140015,200.248245 
	C339.371613,200.269485 344.603333,200.251694 349.947754,200.251694 
	C350.207245,205.441528 348.654938,207.697617 344.014252,207.544815 
	C338.194702,207.353210 332.363953,207.500717 325.552185,207.501541 
M228.817307,259.148621 
	C227.359512,264.566986 225.901718,269.985382 224.394638,275.586914 
	C228.793274,275.586914 232.709290,275.586914 236.627701,275.586914 
	C237.792969,271.308350 239.317184,267.361725 239.865570,263.283905 
	C240.563782,258.092010 242.934097,256.424988 248.069458,256.973694 
	C252.869446,257.486572 257.767334,257.083374 263.111023,257.083374 
	C261.321869,264.009857 259.877747,269.600525 258.362823,275.465271 
	C262.685852,275.465271 266.583130,275.465271 270.295776,275.465271 
	C274.910919,263.972778 274.734253,251.508911 279.992065,240.532639 
	C280.339905,239.806503 280.360962,238.914825 280.487061,238.092957 
	C281.402802,232.124954 278.841614,227.603439 273.005859,227.347565 
	C261.107361,226.825821 249.169998,227.191360 237.314438,227.191360 
	C234.471756,237.809769 231.722855,248.077835 228.817307,259.148621 
M418.397614,266.017700 
	C420.781616,257.038300 423.347931,248.102173 425.492249,239.065903 
	C427.221069,231.780655 423.788635,227.278702 416.350281,227.010620 
	C409.041656,226.747238 401.703705,226.718521 394.400543,227.058243 
	C388.156677,227.348694 382.725098,230.241638 380.753418,236.296661 
	C376.558868,249.178177 373.128174,262.308411 369.276917,275.710602 
	C373.901184,275.710602 377.695862,275.710602 381.715881,275.710602 
	C382.463043,273.176178 383.055695,270.594788 384.023010,268.162445 
	C384.416321,267.173492 385.603333,265.831055 386.465088,265.804291 
	C392.881470,265.605225 399.306854,265.696259 405.994232,265.696259 
	C405.129425,269.331970 404.409058,272.360413 403.626099,275.651917 
	C407.918884,275.651917 411.823853,275.651917 415.826508,275.651917 
	C416.639984,272.571930 417.402039,269.686707 418.397614,266.017700 
M192.154556,226.910721 
	C185.668640,226.913528 179.179764,226.793961 172.697525,226.949753 
	C164.373962,227.149811 158.600143,231.042419 156.100067,238.816742 
	C153.462692,247.018036 151.238739,255.374344 149.294861,263.769592 
	C147.756332,270.414337 150.739960,274.730804 157.515213,275.198242 
	C165.282745,275.734100 173.129776,275.631989 180.914932,275.249939 
	C188.340012,274.885529 193.313644,270.522888 195.485611,263.570251 
	C198.004868,255.505981 200.241119,247.327026 202.065414,239.079559 
	C203.760529,231.416046 201.082077,228.181076 192.154556,226.910721 
M256.562805,190.913651 
	C254.083755,200.155396 251.604721,209.397156 249.005905,219.085434 
	C252.699417,219.085434 255.858078,219.245438 258.983551,218.993454 
	C259.994812,218.911911 261.549896,217.922516 261.787628,217.055420 
	C264.993073,205.364914 268.363434,193.699783 270.944641,181.865158 
	C272.577423,174.378769 269.074463,170.385025 261.315399,170.180222 
	C250.345612,169.890671 239.362473,170.106827 228.092651,170.106827 
	C223.737778,186.365295 219.419617,202.486710 214.993591,219.010849 
	C217.522324,219.010849 219.548828,218.752274 221.483826,219.063171 
	C225.893188,219.771622 227.921677,218.176804 228.925385,213.685394 
	C230.988632,204.452805 233.556396,195.323669 236.236816,186.246536 
	C236.739944,184.542694 238.642395,182.127625 240.057953,182.013657 
	C245.974152,181.537308 251.950897,181.812897 258.545563,181.812897 
	C257.876556,185.026108 257.346649,187.571213 256.562805,190.913651 
M96.192635,268.630066 
	C100.542931,254.938797 104.893227,241.247528 109.387840,227.102081 
	C104.380981,227.102081 100.445953,227.102081 96.379128,227.102081 
	C93.478554,237.858261 90.721359,248.450226 87.693352,258.964172 
	C87.164055,260.802032 85.602760,263.645660 84.335365,263.747345 
	C78.126518,264.245453 71.855858,263.973206 64.817955,263.973206 
	C68.179459,251.213348 71.321609,239.286133 74.551208,227.026993 
	C70.118996,227.026993 66.242867,227.026993 62.248867,227.026993 
	C59.094044,238.986893 55.799168,250.648895 52.983181,262.425385 
	C50.874752,271.242889 54.204674,275.364105 63.308880,275.702972 
	C69.461472,275.932007 75.634499,275.885345 81.789711,275.689575 
	C87.289864,275.514618 92.269997,273.868896 96.192635,268.630066 
M133.239761,208.869095 
	C133.544037,207.747437 133.996826,206.642593 134.126022,205.501129 
	C134.598114,201.329636 136.565475,199.543320 141.003937,200.040848 
	C144.949036,200.483047 148.983002,200.149429 152.977615,200.129318 
	C165.993881,200.063782 171.987442,194.963516 174.329498,181.981049 
	C175.590103,174.993256 172.775055,170.500320 165.839569,170.234116 
	C154.396423,169.794907 142.924149,170.114883 131.340973,170.114883 
	C127.006378,186.357971 122.736565,202.358337 118.398033,218.616180 
	C122.862709,218.616180 126.756500,218.616180 130.653915,218.616180 
	C131.508347,215.434875 132.283325,212.549408 133.239761,208.869095 
M377.310516,237.254700 
	C377.203308,230.316711 374.918884,227.238113 368.557068,227.071701 
	C357.112000,226.772293 345.653473,226.987122 334.084229,226.987122 
	C330.082642,241.793976 326.135712,256.373047 322.211823,270.958344 
	C321.829346,272.380157 321.589233,273.840332 321.181732,275.759796 
	C323.893372,275.759796 326.372467,275.539795 328.796021,275.812897 
	C332.180511,276.194305 333.904358,275.157776 334.595795,271.589508 
	C335.533295,266.751160 337.088898,262.032593 338.448822,257.006042 
	C344.113739,257.006042 349.588470,257.012878 355.063202,257.004700 
	C368.960388,256.983917 374.960175,251.842270 377.310516,237.254700 
M110.355804,228.602951 
	C109.560631,231.739044 108.765465,234.875122 107.821907,238.596405 
	C113.746483,238.596405 118.974487,238.596405 124.640800,238.596405 
	C121.347267,251.222809 118.194954,263.307831 115.017464,275.489380 
	C127.114227,276.311127 127.114197,276.311127 129.981400,265.372223 
	C130.780380,262.324005 131.553757,259.268799 132.384247,256.229187 
	C134.026794,250.217545 135.701004,244.214539 137.346436,238.264694 
	C139.959976,238.264694 141.953018,238.264496 143.946075,238.264740 
	C154.495270,238.266022 154.498566,238.266830 156.909348,228.070267 
	C156.970963,227.809631 156.757797,227.484009 156.584503,226.882050 
	C141.882706,226.882050 127.102539,226.872208 112.322563,226.921402 
	C111.785561,226.923203 111.250488,227.504715 110.355804,228.602951 
M61.070183,197.486221 
	C60.471607,205.329666 56.748795,209.338608 48.349995,207.139725 
	C47.273407,211.298904 46.338833,214.909454 45.300735,218.919952 
	C48.491997,218.919952 51.137798,218.996994 53.777813,218.906006 
	C62.857418,218.593048 68.471733,214.675537 71.093040,205.910019 
	C74.604248,194.168701 77.616776,182.278259 80.906898,170.219208 
	C76.612495,170.219208 72.681618,170.219208 68.568359,170.219208 
	C66.103081,179.153534 63.683643,187.921722 61.070183,197.486221 
M327.416748,283.129242 
	C326.092712,283.519287 323.653290,283.830383 323.619232,284.311737 
	C323.318359,288.562958 323.444641,292.844421 323.444641,297.116974 
	C324.002747,297.141846 324.560822,297.166718 325.118927,297.191589 
	C325.488007,295.261414 325.857086,293.331207 326.480072,290.073303 
	C329.563843,292.850525 332.037842,295.078613 334.511841,297.306671 
	C334.776154,297.031494 335.040466,296.756317 335.304749,296.481171 
	C334.267853,294.864197 333.230988,293.247223 332.659271,292.355652 
	C333.261108,289.780304 334.713440,287.188721 333.955078,285.843140 
	C333.111725,284.346741 330.254181,283.985596 327.416748,283.129242 
M60.122349,296.592468 
	C61.076683,295.479279 62.889442,294.310455 62.821590,293.263519 
	C62.631294,290.327240 62.401638,286.860718 60.735981,284.747467 
	C59.692738,283.423889 55.151394,283.097137 53.754696,284.243042 
	C51.864197,285.793976 50.573467,289.216095 50.658173,291.781555 
	C50.804691,296.219238 53.629658,297.511841 60.122349,296.592468 
M197.796982,296.690063 
	C198.767120,296.884644 199.736816,297.242981 200.707489,297.245667 
	C205.088486,297.257812 207.620529,294.416138 207.409790,289.847595 
	C207.217468,285.678345 204.249893,282.807465 200.404938,283.070984 
	C196.674973,283.326630 193.721008,286.745819 194.382675,290.744171 
	C194.705032,292.692139 196.213333,294.443848 197.796982,296.690063 
M83.605682,289.554871 
	C83.605682,292.050568 83.605682,294.546234 83.605682,297.041931 
	C84.118294,297.072479 84.630913,297.103027 85.143524,297.133606 
	C85.551643,295.386230 85.959770,293.638885 86.342613,291.999756 
	C90.007622,291.343719 95.200714,292.086273 93.923233,286.533752 
	C92.653336,281.014252 87.650238,283.737030 83.606392,283.346680 
	C83.606392,285.405823 83.606392,287.031555 83.605682,289.554871 
M159.930786,283.756287 
	C156.865234,284.663727 153.319016,292.451752 153.828156,296.328766 
	C155.460022,295.322174 157.338226,293.235748 159.122910,293.312927 
	C161.067688,293.397003 162.925735,295.487640 164.827286,296.707153 
	C164.899887,296.398590 165.107986,296.050476 165.016937,295.821045 
	C163.492722,291.980042 161.931137,288.153839 159.930786,283.756287 
M361.449097,297.077362 
	C367.212036,297.655884 368.676300,296.705200 368.423920,293.798279 
	C365.905762,294.012878 363.486206,294.219116 361.066650,294.425323 
	C360.910309,291.788727 359.669434,288.214111 360.907074,286.783203 
	C362.109802,285.392670 365.854004,286.200378 369.113617,286.004944 
	C367.632507,285.138397 365.751434,283.126160 364.298706,283.398499 
	C362.037720,283.822449 359.147705,285.326263 358.174957,287.220215 
	C356.407318,290.661865 357.181671,294.347565 361.449097,297.077362 
M228.842957,285.123993 
	C228.266998,286.300781 227.041031,287.605591 227.242599,288.629272 
	C227.752396,291.218323 228.268814,294.368378 230.004074,295.971436 
	C231.331390,297.197601 235.290146,297.375427 236.697922,296.266724 
	C238.530472,294.823425 239.852371,291.652344 239.871750,289.212708 
	C239.911179,284.251495 236.843491,283.085632 228.842957,285.123993 
M311.887634,286.429169 
	C314.438751,285.717102 316.989838,285.005066 319.540955,284.292999 
	C319.551361,284.096710 319.561798,283.900391 319.572205,283.704102 
	C316.465454,283.704102 313.358673,283.704102 309.979889,283.704102 
	C309.979889,287.997528 309.979889,292.398163 309.979889,296.611267 
	C313.382935,296.611267 316.569641,296.611267 319.756348,296.611267 
	C319.744507,296.296112 319.732666,295.980988 319.720825,295.665833 
	C317.197113,295.433441 314.673431,295.201050 311.854065,294.941437 
	C311.854065,292.218597 311.854065,289.753876 311.887634,286.429169 
M177.125214,287.348724 
	C177.113602,288.511200 177.187241,289.682159 177.072586,290.834381 
	C176.836517,293.206879 176.499466,295.687805 173.292328,295.592468 
	C170.018448,295.495117 169.907913,293.071686 169.956360,290.602142 
	C170.001770,288.287140 169.966080,285.970551 169.966080,283.654694 
	C169.319122,283.661377 168.672165,283.668091 168.025208,283.674774 
	C168.025208,286.823364 167.769623,289.998199 168.089798,293.113861 
	C168.491409,297.021881 171.472672,298.104218 174.638702,297.089508 
	C177.025742,296.324463 179.051514,294.706970 177.251740,291.126160 
	C176.284332,289.201385 177.079758,286.390594 177.079758,283.979584 
	C177.245636,283.939545 177.411514,283.899506 177.577393,283.859497 
	C177.427200,284.768768 177.276993,285.678009 177.125214,287.348724 
M372.593964,290.494720 
	C372.593964,292.603088 372.593964,294.711456 372.593964,296.596863 
	C376.326385,296.596863 379.506622,296.596863 382.686859,296.596863 
	C382.671265,296.285614 382.655670,295.974335 382.640076,295.663086 
	C380.105316,295.432281 377.570587,295.201477 375.285156,294.993378 
	C374.908051,291.529022 374.571381,288.436401 374.231079,285.310303 
	C377.268951,285.119232 379.876709,284.955231 382.484497,284.791229 
	C382.460846,284.406525 382.437195,284.021851 382.413544,283.637146 
	C379.303070,283.637146 376.192627,283.637146 372.594391,283.637146 
	C372.594391,285.664764 372.594391,287.619751 372.593964,290.494720 
M66.816818,296.444702 
	C67.361275,296.057312 68.327438,295.715759 68.375458,295.274353 
	C68.559959,293.578400 68.450195,291.850494 68.450195,290.134491 
	C68.811195,290.080505 69.172188,290.026520 69.533188,289.972504 
	C70.635002,292.427185 71.736816,294.881866 72.838631,297.336578 
	C73.315102,297.096558 73.791565,296.856537 74.268028,296.616547 
	C72.425041,292.047333 70.582054,287.478149 68.739067,282.908936 
	C68.058006,283.085754 67.376938,283.262573 66.695869,283.439423 
	C66.695869,287.502014 66.695869,291.564606 66.816818,296.444702 
M298.859070,285.451172 
	C298.840240,284.928619 298.821411,284.406097 298.802582,283.883545 
	C297.947327,284.543030 296.526093,285.094177 296.374115,285.888214 
	C296.164764,286.982208 296.549316,288.694427 297.338409,289.357086 
	C298.533600,290.360748 300.397369,290.521637 301.783020,291.360962 
	C302.755493,291.950012 303.404816,293.072571 304.198456,293.956848 
	C302.938324,294.486542 301.569519,295.607849 300.444580,295.401276 
	C298.922089,295.121735 297.586639,293.823273 295.693817,292.671631 
	C296.577454,297.293854 299.618805,297.737000 302.541351,297.064850 
	C304.071838,296.712860 305.218994,294.694183 306.539276,293.428223 
	C304.822388,291.927643 303.089020,290.445435 301.394745,288.919708 
	C300.357819,287.985931 299.381012,286.985382 298.859070,285.451172 
M262.929474,288.749329 
	C264.089203,291.668182 265.248932,294.587036 266.408661,297.505890 
	C266.972260,297.455109 267.535858,297.404327 268.099457,297.353546 
	C269.875336,292.860046 271.651215,288.366577 273.427124,283.873108 
	C272.887421,283.646423 272.347748,283.419739 271.808075,283.193054 
	C270.403839,286.709564 268.999603,290.226044 267.368500,294.310577 
	C265.630280,290.182129 264.123474,286.603333 262.616669,283.024567 
	C262.137512,283.224182 261.658325,283.423828 261.179138,283.623474 
	C261.688812,285.093658 262.198517,286.563843 262.929474,288.749329 
M145.192490,295.932098 
	C142.636978,295.585114 140.081482,295.238129 137.535965,294.892517 
	C137.535965,291.623505 137.535965,288.515320 137.535965,285.310089 
	C140.080841,285.132812 142.499466,284.964355 144.918106,284.795868 
	C144.883286,284.399139 144.848465,284.002380 144.813629,283.605652 
	C141.703720,283.605652 138.593811,283.605652 135.317139,283.605652 
	C135.317139,288.145752 135.317139,292.388947 135.317139,297.291443 
	C138.805450,297.087921 142.030319,296.899780 145.192490,295.932098 
M279.487610,297.177338 
	C281.716797,297.065308 283.945984,296.953278 286.175171,296.841248 
	C286.149902,296.412628 286.124664,295.984009 286.099426,295.555389 
	C283.554352,295.417358 281.009247,295.279358 278.451813,295.140686 
	C278.451813,291.711365 278.451813,288.601135 278.451813,285.243744 
	C280.905884,285.126923 283.387817,285.008789 285.869720,284.890686 
	C285.858643,284.498505 285.847595,284.106354 285.836517,283.714172 
	C282.752686,283.714172 279.668854,283.714172 276.023987,283.714172 
	C276.023987,287.487396 275.884979,291.270325 276.139252,295.026642 
	C276.191162,295.793365 277.720032,296.460144 279.487610,297.177338 
M110.753761,283.207001 
	C110.148705,283.830078 109.046837,284.432526 109.019958,285.079620 
	C108.856781,289.009033 108.938599,292.948608 108.938599,296.685669 
	C112.611580,296.685669 115.697067,296.685669 118.782555,296.685669 
	C118.785103,296.355255 118.787651,296.024872 118.790207,295.694458 
	C116.290901,295.480438 113.791603,295.266418 111.410416,295.062500 
	C111.410416,291.639679 111.410416,288.538757 111.410416,285.262482 
	C113.855309,285.114136 116.317574,284.964722 118.779839,284.815308 
	C118.764534,284.272034 118.749237,283.728760 118.733932,283.185486 
	C116.375130,283.185486 114.016327,283.185486 110.753761,283.207001 
M44.931053,294.150604 
	C43.252796,294.369812 40.225132,295.067444 40.106735,294.733551 
	C39.020691,291.670624 38.439323,288.428772 37.696060,285.174377 
	C34.943848,288.187775 34.945488,291.849884 37.394764,295.087952 
	C38.437634,296.466675 41.116879,297.213348 43.012344,297.144379 
	C44.453918,297.091919 45.876625,295.349640 47.192928,294.224854 
	C47.402466,294.045837 47.007103,293.158875 46.891396,292.599213 
	C46.380493,292.927277 45.869587,293.255341 44.931053,294.150604 
M122.431732,284.974640 
	C123.539650,285.087189 124.647568,285.199768 125.807823,285.317627 
	C126.008629,289.371704 126.198593,293.207031 126.388557,297.042358 
	C126.901176,296.998779 127.413788,296.955200 127.926407,296.911621 
	C127.926407,293.150635 127.926407,289.389679 127.926407,285.615082 
	C129.634003,285.181122 131.017090,284.829620 132.400177,284.478119 
	C132.306137,283.922119 132.212082,283.366119 132.118042,282.810150 
	C128.699860,283.362701 125.281677,283.915283 122.431732,284.974640 
M246.934601,295.180908 
	C247.163483,295.802856 247.392349,296.424805 247.621231,297.046783 
	C247.976379,297.008606 248.331528,296.970428 248.686676,296.932251 
	C248.686676,293.106018 248.686676,289.279785 248.686676,285.581024 
	C250.584106,285.149109 251.870895,284.856171 253.157684,284.563263 
	C253.123184,284.286316 253.088684,284.009399 253.054199,283.732452 
	C249.601379,283.732452 246.148575,283.732452 242.695755,283.732452 
	C242.669403,284.028564 242.643036,284.324646 242.616669,284.620758 
	C244.032028,284.921265 245.447372,285.221802 246.926804,285.535919 
	C246.926804,288.654572 246.926804,291.457733 246.934601,295.180908 
M188.443039,285.281586 
	C189.753616,285.047485 191.064178,284.813354 192.374756,284.579224 
	C192.332153,284.342590 192.289566,284.105957 192.246979,283.869324 
	C188.829010,283.869324 185.411041,283.869324 181.993073,283.869324 
	C182.000351,284.109985 182.007629,284.350647 182.014893,284.591309 
	C183.348801,284.948334 184.682709,285.305359 186.736420,285.855042 
	C186.736420,289.679657 186.736420,293.366577 186.736420,297.053467 
	C187.198502,297.006226 187.660599,296.958984 188.122681,296.911713 
	C188.122681,293.305206 188.122681,289.698700 188.443039,285.281586 
M257.425262,283.321808 
	C254.881210,287.887634 256.490662,292.456360 256.540649,297.024017 
	C257.061218,297.039429 257.581818,297.054871 258.102386,297.070282 
	C258.102386,292.623230 258.102386,288.176147 257.425262,283.321808 
M97.072777,286.911499 
	C97.072777,290.178894 97.072777,293.446289 97.072777,296.606567 
	C100.285172,296.606567 102.949341,296.606567 105.613510,296.606567 
	C105.603241,296.314484 105.592964,296.022400 105.582695,295.730316 
	C103.554298,295.473663 101.525902,295.217010 99.365265,294.943634 
	C99.191132,290.971069 99.026581,287.217194 98.862030,283.463318 
	C98.476181,283.457581 98.090324,283.451843 97.704475,283.446136 
	C97.494682,284.305267 97.284897,285.164429 97.072777,286.911499 
M75.877319,287.609985 
	C75.765465,288.272278 75.653618,288.934570 75.541763,289.596863 
	C75.738609,289.667267 75.935448,289.737640 76.132294,289.808014 
	C76.426476,289.150604 76.720657,288.493195 77.548859,286.642426 
	C77.896133,291.242493 78.110619,294.083557 78.325104,296.924622 
	C78.645256,296.877838 78.965416,296.831024 79.285576,296.784241 
	C79.285576,292.292816 79.285576,287.801361 79.285576,283.309906 
	C78.842987,283.190155 78.400398,283.070404 77.957809,282.950653 
	C77.305115,284.286316 76.652428,285.622009 75.877319,287.609985 
M337.428955,283.437714 
	C338.737885,287.701813 339.999969,291.981812 341.431213,296.204437 
	C341.568024,296.608093 343.034119,297.034088 343.395721,296.773499 
	C343.890594,296.416870 344.326416,295.209167 344.081696,294.717712 
	C342.201172,290.941193 340.149689,287.249817 337.428955,283.437714 
M351.934631,296.072723 
	C352.417267,296.270691 352.899902,296.468689 353.382538,296.666687 
	C353.382538,292.286072 353.382538,287.905487 353.382538,283.524872 
	C352.878235,283.532806 352.373962,283.540771 351.869659,283.548706 
	C351.869659,287.415222 351.869659,291.281738 351.934631,296.072723 
z"/>
<path fill="#271310" opacity="1.000000" stroke="none" 
	d="
M442.990723,233.998154 
	C443.258667,227.605743 446.986298,226.485229 452.662598,226.799118 
	C461.289673,227.276199 469.963013,226.847229 478.611786,227.032028 
	C483.165619,227.129333 487.224518,228.411499 488.670868,233.863220 
	C489.000000,235.714355 489.000000,237.428711 489.000000,239.571533 
	C486.993988,245.187012 483.761841,249.712692 483.255646,255.718964 
	C482.694763,262.374542 480.325317,268.877686 478.720642,275.541992 
	C474.503448,275.541992 470.737061,275.541992 466.402344,275.541992 
	C467.843414,269.640198 469.232086,263.952881 470.774323,257.636841 
	C463.506439,257.636841 456.690521,257.636841 449.429718,257.636841 
	C447.869690,263.334503 446.221283,269.354980 444.508026,275.612335 
	C440.544342,275.612335 436.625488,275.612335 433.316864,275.612335 
	C433.316864,272.202789 433.316864,268.906494 432.780273,265.544495 
	C432.306976,265.327942 432.371643,265.172943 432.698425,265.506836 
	C433.682861,265.574524 434.902710,265.281464 435.056488,264.704346 
	C437.778381,254.489517 440.370544,244.240097 442.990723,233.998154 
M460.587128,245.651108 
	C464.235046,245.629990 468.018219,246.174210 471.473480,245.347748 
	C473.185455,244.938263 474.294189,242.006683 475.675873,240.216156 
	C474.246368,239.538666 472.838379,238.336304 471.383545,238.276672 
	C465.787140,238.047241 460.175781,238.183670 454.440521,238.183670 
	C453.790527,240.811737 453.255249,242.975983 452.593628,245.651062 
	C455.370300,245.651062 457.501343,245.651062 460.587128,245.651108 
z"/>
<path fill="#281411" opacity="1.000000" stroke="none" 
	d="
M1.000001,273.375000 
	C3.652023,264.049988 6.311494,255.102173 8.951345,246.148575 
	C9.702572,243.600616 10.223129,240.970963 11.149884,238.491043 
	C13.872533,231.205521 19.122648,227.143738 26.988028,226.968781 
	C33.813656,226.816971 40.650761,226.763748 47.472816,226.980652 
	C54.995430,227.219833 58.530117,230.946930 56.968533,238.236740 
	C54.396481,250.243607 50.984783,262.073364 47.753082,273.930328 
	C47.521626,274.779541 45.908745,275.715240 44.874538,275.796051 
	C41.742290,276.040710 38.578724,275.884521 35.032078,275.884521 
	C35.832195,272.529907 36.548439,269.526978 37.457027,265.717590 
	C30.533863,265.717590 23.983654,265.621765 17.444380,265.845551 
	C16.674269,265.871857 15.396399,267.610443 15.318865,268.628784 
	C14.830591,275.041840 11.376791,277.058624 5.408128,275.915314 
	C4.282030,275.699615 3.081886,275.870483 1.457954,275.931488 
	C1.000000,275.250000 1.000000,274.500000 1.000001,273.375000 
M42.076496,238.255829 
	C22.672874,238.174026 22.672453,238.173935 19.425400,253.148865 
	C19.391699,253.304306 19.445572,253.478745 19.472691,253.824371 
	C26.551575,253.824371 33.645077,253.824371 40.792759,253.824371 
	C41.848164,250.033752 43.041344,246.398392 43.800190,242.674515 
	C44.070225,241.349396 43.285831,239.809402 42.076496,238.255829 
z"/>
<path fill="#D42C25" opacity="1.000000" stroke="none" 
	d="
M277.789032,174.774780 
	C281.509521,173.046982 284.911255,170.468872 288.429688,170.298264 
	C299.710876,169.751221 311.035217,170.094940 322.739655,170.094940 
	C321.672150,174.057343 320.692474,177.693756 319.635895,181.615601 
	C310.112701,181.615601 300.789368,181.880920 291.491241,181.512024 
	C286.253448,181.304245 284.178101,183.403534 284.236053,188.801636 
	C295.162964,188.801636 306.063110,188.801636 317.584503,188.801636 
	C316.650970,192.398438 316.134735,195.515564 314.947998,198.352173 
	C314.529053,199.353516 312.481750,200.188278 311.160736,200.213943 
	C302.668945,200.378998 294.172424,200.288788 285.677429,200.301651 
	C280.011505,200.310242 279.866058,200.482620 279.861542,207.154602 
	C290.601532,207.154602 301.357300,207.154602 312.774628,207.154602 
	C311.657684,211.435883 310.713379,215.055374 309.725128,218.843246 
	C298.167511,218.843246 286.846283,219.155518 275.552673,218.731491 
	C268.245239,218.457123 265.125580,214.010056 266.755890,206.839691 
	C268.633270,198.582764 270.849976,190.389694 273.299744,182.283875 
	C274.087494,179.677322 276.081512,177.435318 277.789032,174.774780 
z"/>
<path fill="#281411" opacity="1.000000" stroke="none" 
	d="
M294.405518,240.666382 
	C293.923767,242.396103 293.657745,243.688828 293.297791,245.437897 
	C304.458191,245.437897 315.397217,245.437897 326.987946,245.437897 
	C325.902191,249.600876 324.960693,253.210632 323.968567,257.014526 
	C312.627899,257.014526 301.496277,257.014526 290.024963,257.014526 
	C289.538086,259.224701 289.090088,261.258209 288.506409,263.907806 
	C299.898285,263.907806 310.792328,263.907806 322.150879,263.907806 
	C320.993347,268.174072 320.002594,271.825714 318.962158,275.660492 
	C307.595520,275.660492 296.458099,275.982941 285.350067,275.550629 
	C277.548309,275.247009 274.445435,271.238068 276.077820,263.580353 
	C277.943817,254.826569 280.346191,246.144516 283.181732,237.653763 
	C285.369324,231.103409 290.605286,227.280182 297.550354,227.081116 
	C308.849792,226.757202 320.165314,226.993729 331.986176,226.993729 
	C330.961365,230.854507 330.010834,234.435501 328.994049,238.266006 
	C319.264130,238.266006 309.803162,238.159195 300.348389,238.354965 
	C298.427216,238.394730 296.529694,239.574936 294.405518,240.666382 
z"/>
<path fill="#D42C25" opacity="1.000000" stroke="none" 
	d="
M369.291748,184.404114 
	C373.095978,173.643814 378.110321,170.041000 389.123840,169.997086 
	C399.087799,169.957367 409.052002,169.988693 419.432465,169.988693 
	C418.787201,172.724228 418.140259,174.949295 417.756104,177.218857 
	C417.200348,180.502182 415.728088,181.871567 412.086456,181.719818 
	C404.103424,181.387161 396.096954,181.601044 388.100128,181.619659 
	C382.133057,181.633560 381.550781,182.240372 381.223877,188.861435 
	C392.029083,188.861435 402.822754,188.861435 414.300812,188.861435 
	C413.416168,192.438263 412.917419,195.680222 411.709167,198.631714 
	C411.320679,199.580765 409.068970,200.200745 407.656464,200.225677 
	C399.328979,200.372681 390.982117,200.605896 382.673340,200.185745 
	C377.702820,199.934387 376.101685,201.953903 376.370972,207.023041 
	C387.072449,207.023041 397.810394,207.023041 409.472931,207.023041 
	C408.416473,211.355408 407.546692,214.922195 406.596802,218.817444 
	C394.943390,218.817444 383.468597,219.172668 372.029358,218.687805 
	C364.861298,218.383972 361.872009,213.659698 363.532288,206.494263 
	C365.220032,199.210464 367.271088,192.010834 369.291748,184.404114 
z"/>
<path fill="#D42B24" opacity="1.000000" stroke="none" 
	d="
M102.737228,208.891510 
	C96.623100,208.890976 90.981308,208.890976 85.400200,208.890976 
	C84.088692,212.398987 83.751038,217.166306 81.472885,218.426987 
	C78.562889,220.037323 74.086784,218.817596 69.860878,218.817596 
	C73.265564,206.405472 76.412697,194.206650 79.994339,182.136749 
	C82.283134,174.423660 88.016296,170.446167 95.958282,170.103958 
	C102.601784,169.817719 109.272247,169.863861 115.921135,170.071503 
	C124.053947,170.325439 127.663559,174.516708 125.828506,182.459290 
	C123.030846,194.568268 119.554359,206.520386 116.314873,218.732330 
	C112.145554,218.732330 108.229294,218.732330 103.921516,218.732330 
	C104.597130,216.224960 105.496658,213.889633 105.718071,211.491669 
	C105.790337,210.709000 104.095970,209.763214 102.737228,208.891510 
M106.221268,197.234344 
	C107.484985,196.774551 109.595734,196.606461 109.871292,195.806366 
	C111.362495,191.476379 112.399544,186.989960 113.808899,181.756088 
	C106.812584,181.756088 100.710625,181.654388 94.618858,181.857819 
	C93.622093,181.891113 92.114616,183.086151 91.794029,184.057938 
	C90.422501,188.215454 89.407112,192.490463 88.123528,197.233810 
	C94.350273,197.233810 99.816132,197.233810 106.221268,197.234344 
z"/>
<path fill="#D42B24" opacity="1.000000" stroke="none" 
	d="
M169.770020,207.657303 
	C171.926437,199.557480 173.877747,191.825348 176.049118,184.155502 
	C178.802826,174.428665 184.464737,170.134933 194.558731,170.014236 
	C200.883133,169.938599 207.222107,169.802109 213.531982,170.128784 
	C220.818619,170.506042 224.413269,174.777832 222.776657,181.781448 
	C219.870972,194.216019 216.350693,206.506973 213.088593,218.854034 
	C208.908920,218.854034 205.107880,218.854034 200.834549,218.854034 
	C201.595627,215.622498 202.299088,212.635620 203.177414,208.906296 
	C196.482132,208.906296 190.092163,208.812820 183.711426,209.013321 
	C182.818130,209.041397 181.576416,210.354599 181.180511,211.346222 
	C180.264572,213.640457 179.768295,216.102234 179.037704,218.726471 
	C175.016830,218.726471 171.111298,218.726471 166.806381,218.726471 
	C167.790634,215.048325 168.726639,211.550491 169.770020,207.657303 
M188.406204,183.794647 
	C187.243851,188.082153 186.081497,192.369659 184.768326,197.213440 
	C191.679810,197.213440 198.113052,197.262802 204.543365,197.148438 
	C205.311874,197.134750 206.551956,196.373398 206.745651,195.715042 
	C208.034012,191.336395 209.096970,186.891418 210.434189,181.685516 
	C206.203674,181.685516 202.751175,181.506149 199.326035,181.735428 
	C195.824585,181.969818 192.349960,182.605042 188.406204,183.794647 
z"/>
<path fill="#D42B24" opacity="1.000000" stroke="none" 
	d="
M326.045105,207.501709 
	C332.363953,207.500717 338.194702,207.353210 344.014252,207.544815 
	C348.654938,207.697617 350.207245,205.441528 349.947754,200.251694 
	C344.603333,200.251694 339.371613,200.269485 334.140015,200.248245 
	C320.362061,200.192337 317.033051,195.188461 321.871155,182.049820 
	C324.661499,174.472321 330.109619,170.422501 338.028992,170.178253 
	C347.508179,169.885895 357.002380,170.080765 366.490082,170.065323 
	C367.809723,170.063171 369.129333,170.065033 371.136688,170.065033 
	C370.278931,173.544739 369.783539,176.763824 368.597565,179.704422 
	C368.186890,180.722733 366.072327,181.579697 364.718323,181.606232 
	C356.065979,181.775833 347.405853,181.827469 338.754242,181.641190 
	C333.928925,181.537292 332.770630,183.994370 333.136169,188.869812 
	C339.047180,188.869812 344.811096,188.829269 350.574249,188.878433 
	C361.849609,188.974594 365.206299,193.565094 362.004730,204.430267 
	C359.003662,214.615021 353.372437,218.926636 342.728851,218.992783 
	C332.908722,219.053833 323.087799,218.988174 313.267242,218.962631 
	C312.951202,218.961807 312.635651,218.789047 312.315613,218.695023 
	C312.229614,218.394470 312.023590,218.067123 312.084137,217.800232 
	C314.420258,207.498932 314.423492,207.499664 326.045105,207.501709 
z"/>
<path fill="#271310" opacity="1.000000" stroke="none" 
	d="
M228.895630,258.747253 
	C231.722855,248.077835 234.471756,237.809769 237.314438,227.191360 
	C249.169998,227.191360 261.107361,226.825821 273.005859,227.347565 
	C278.841614,227.603439 281.402802,232.124954 280.487061,238.092957 
	C280.360962,238.914825 280.339905,239.806503 279.992065,240.532639 
	C274.734253,251.508911 274.910919,263.972778 270.295776,275.465271 
	C266.583130,275.465271 262.685852,275.465271 258.362823,275.465271 
	C259.877747,269.600525 261.321869,264.009857 263.111023,257.083374 
	C257.767334,257.083374 252.869446,257.486572 248.069458,256.973694 
	C242.934097,256.424988 240.563782,258.092010 239.865570,263.283905 
	C239.317184,267.361725 237.792969,271.308350 236.627701,275.586914 
	C232.709290,275.586914 228.793274,275.586914 224.394638,275.586914 
	C225.901718,269.985382 227.359512,264.566986 228.895630,258.747253 
M265.972778,244.717255 
	C268.980988,238.713348 268.708527,238.206619 262.424500,238.186432 
	C258.929840,238.175201 255.435104,238.181839 251.940399,238.184677 
	C245.770172,238.189713 245.319702,238.685410 245.412262,245.134872 
	C252.036362,245.134872 258.653778,245.134872 265.972778,244.717255 
z"/>
<path fill="#281411" opacity="1.000000" stroke="none" 
	d="
M418.280823,266.409607 
	C417.402039,269.686707 416.639984,272.571930 415.826508,275.651917 
	C411.823853,275.651917 407.918884,275.651917 403.626099,275.651917 
	C404.409058,272.360413 405.129425,269.331970 405.994232,265.696259 
	C399.306854,265.696259 392.881470,265.605225 386.465088,265.804291 
	C385.603333,265.831055 384.416321,267.173492 384.023010,268.162445 
	C383.055695,270.594788 382.463043,273.176178 381.715881,275.710602 
	C377.695862,275.710602 373.901184,275.710602 369.276917,275.710602 
	C373.128174,262.308411 376.558868,249.178177 380.753418,236.296661 
	C382.725098,230.241638 388.156677,227.348694 394.400543,227.058243 
	C401.703705,226.718521 409.041656,226.747238 416.350281,227.010620 
	C423.788635,227.278702 427.221069,231.780655 425.492249,239.065903 
	C423.347931,248.102173 420.781616,257.038300 418.280823,266.409607 
M390.423309,243.020493 
	C389.518860,246.525894 388.614441,250.031281 387.667084,253.703094 
	C395.067017,253.703094 402.094910,253.703094 409.311951,253.703094 
	C410.601379,248.743011 411.828827,244.021271 413.307983,238.331253 
	C406.344208,238.331253 400.117279,238.135284 393.924622,238.508621 
	C392.785950,238.577271 391.786438,240.954483 390.423309,243.020493 
z"/>
<path fill="#281411" opacity="1.000000" stroke="none" 
	d="
M192.607498,226.929291 
	C201.082077,228.181076 203.760529,231.416046 202.065414,239.079559 
	C200.241119,247.327026 198.004868,255.505981 195.485611,263.570251 
	C193.313644,270.522888 188.340012,274.885529 180.914932,275.249939 
	C173.129776,275.631989 165.282745,275.734100 157.515213,275.198242 
	C150.739960,274.730804 147.756332,270.414337 149.294861,263.769592 
	C151.238739,255.374344 153.462692,247.018036 156.100067,238.816742 
	C158.600143,231.042419 164.373962,227.149811 172.697525,226.949753 
	C179.179764,226.793961 185.668640,226.913528 192.607498,226.929291 
M164.456070,252.965683 
	C163.591171,256.430359 162.726257,259.895050 161.693542,264.031952 
	C168.552902,264.031952 174.661484,264.108704 180.763977,263.950470 
	C181.695862,263.926300 183.186768,262.988556 183.425064,262.180267 
	C185.689423,254.499969 187.738892,246.756302 190.097763,238.124985 
	C186.866211,238.124985 184.766068,238.080353 182.668304,238.132019 
	C165.688736,238.550247 169.575699,234.967590 164.456070,252.965683 
z"/>
<path fill="#D42B25" opacity="1.000000" stroke="none" 
	d="
M256.689758,190.514984 
	C257.346649,187.571213 257.876556,185.026108 258.545563,181.812897 
	C251.950897,181.812897 245.974152,181.537308 240.057953,182.013657 
	C238.642395,182.127625 236.739944,184.542694 236.236816,186.246536 
	C233.556396,195.323669 230.988632,204.452805 228.925385,213.685394 
	C227.921677,218.176804 225.893188,219.771622 221.483826,219.063171 
	C219.548828,218.752274 217.522324,219.010849 214.993591,219.010849 
	C219.419617,202.486710 223.737778,186.365295 228.092651,170.106827 
	C239.362473,170.106827 250.345612,169.890671 261.315399,170.180222 
	C269.074463,170.385025 272.577423,174.378769 270.944641,181.865158 
	C268.363434,193.699783 264.993073,205.364914 261.787628,217.055420 
	C261.549896,217.922516 259.994812,218.911911 258.983551,218.993454 
	C255.858078,219.245438 252.699417,219.085434 249.005905,219.085434 
	C251.604721,209.397156 254.083755,200.155396 256.689758,190.514984 
z"/>
<path fill="#291512" opacity="1.000000" stroke="none" 
	d="
M95.996971,268.938599 
	C92.269997,273.868896 87.289864,275.514618 81.789711,275.689575 
	C75.634499,275.885345 69.461472,275.932007 63.308880,275.702972 
	C54.204674,275.364105 50.874752,271.242889 52.983181,262.425385 
	C55.799168,250.648895 59.094044,238.986893 62.248867,227.026993 
	C66.242867,227.026993 70.118996,227.026993 74.551208,227.026993 
	C71.321609,239.286133 68.179459,251.213348 64.817955,263.973206 
	C71.855858,263.973206 78.126518,264.245453 84.335365,263.747345 
	C85.602760,263.645660 87.164055,260.802032 87.693352,258.964172 
	C90.721359,248.450226 93.478554,237.858261 96.379128,227.102081 
	C100.445953,227.102081 104.380981,227.102081 109.387840,227.102081 
	C104.893227,241.247528 100.542931,254.938797 95.996971,268.938599 
z"/>
<path fill="#D42B24" opacity="1.000000" stroke="none" 
	d="
M133.149033,209.266510 
	C132.283325,212.549408 131.508347,215.434875 130.653915,218.616180 
	C126.756500,218.616180 122.862709,218.616180 118.398033,218.616180 
	C122.736565,202.358337 127.006378,186.357971 131.340973,170.114883 
	C142.924149,170.114883 154.396423,169.794907 165.839569,170.234116 
	C172.775055,170.500320 175.590103,174.993256 174.329498,181.981049 
	C171.987442,194.963516 165.993881,200.063782 152.977615,200.129318 
	C148.983002,200.149429 144.949036,200.483047 141.003937,200.040848 
	C136.565475,199.543320 134.598114,201.329636 134.126022,205.501129 
	C133.996826,206.642593 133.544037,207.747437 133.149033,209.266510 
M141.964706,181.708221 
	C140.755051,183.796875 139.545395,185.885544 137.805908,188.889053 
	C144.489716,188.889053 149.784073,188.647339 155.045502,188.959930 
	C159.894775,189.248016 161.605728,186.956284 161.695862,181.670059 
	C155.331238,181.670059 149.104828,181.670059 141.964706,181.708221 
z"/>
<path fill="#271310" opacity="1.000000" stroke="none" 
	d="
M377.262512,237.643814 
	C374.960175,251.842270 368.960388,256.983917 355.063202,257.004700 
	C349.588470,257.012878 344.113739,257.006042 338.448822,257.006042 
	C337.088898,262.032593 335.533295,266.751160 334.595795,271.589508 
	C333.904358,275.157776 332.180511,276.194305 328.796021,275.812897 
	C326.372467,275.539795 323.893372,275.759796 321.181732,275.759796 
	C321.589233,273.840332 321.829346,272.380157 322.211823,270.958344 
	C326.135712,256.373047 330.082642,241.793976 334.084229,226.987122 
	C345.653473,226.987122 357.112000,226.772293 368.557068,227.071701 
	C374.918884,227.238113 377.203308,230.316711 377.262512,237.643814 
M355.404724,238.180603 
	C351.440582,238.180603 347.476410,238.180603 343.382141,238.180603 
	C342.720001,240.726196 342.151611,242.911453 341.452942,245.597580 
	C348.138794,245.597580 354.281219,245.951462 360.329773,245.354462 
	C361.886292,245.200851 363.147339,242.053772 364.544098,240.281845 
	C363.141968,239.581757 361.801331,238.657379 360.318695,238.250977 
	C359.082764,237.912201 357.680328,238.180939 355.404724,238.180603 
z"/>
<path fill="#281310" opacity="1.000000" stroke="none" 
	d="
M110.535156,228.209503 
	C111.250488,227.504715 111.785561,226.923203 112.322563,226.921402 
	C127.102539,226.872208 141.882706,226.882050 156.584503,226.882050 
	C156.757797,227.484009 156.970963,227.809631 156.909348,228.070267 
	C154.498566,238.266830 154.495270,238.266022 143.946075,238.264740 
	C141.953018,238.264496 139.959976,238.264694 137.346436,238.264694 
	C135.701004,244.214539 134.026794,250.217545 132.384247,256.229187 
	C131.553757,259.268799 130.780380,262.324005 129.981400,265.372223 
	C127.114197,276.311127 127.114227,276.311127 115.017464,275.489380 
	C118.194954,263.307831 121.347267,251.222809 124.640800,238.596405 
	C118.974487,238.596405 113.746483,238.596405 107.821907,238.596405 
	C108.765465,234.875122 109.560631,231.739044 110.535156,228.209503 
z"/>
<path fill="#D42B24" opacity="1.000000" stroke="none" 
	d="
M432.132812,226.994324 
	C432.557831,224.385773 432.651855,221.668198 433.468567,219.188629 
	C436.169952,210.986786 436.569977,203.309189 432.310242,195.154694 
	C428.119843,187.132980 431.902283,176.390488 439.676544,171.789246 
	C439.851776,175.146851 439.966827,178.219543 440.182037,181.285217 
	C440.573212,186.857544 442.872650,188.665512 449.211975,188.478043 
	C455.209930,188.300659 457.234436,186.433838 457.297424,180.966797 
	C457.329437,178.187714 457.303040,175.407959 457.303040,172.268982 
	C466.644836,177.565231 469.910034,193.743271 462.220520,198.354294 
	C451.270935,204.920258 446.337952,214.775375 441.760071,226.069458 
	C438.037262,226.480103 435.085022,226.737213 432.132812,226.994324 
z"/>
<path fill="#D42C25" opacity="1.000000" stroke="none" 
	d="
M61.167194,197.088074 
	C63.683643,187.921722 66.103081,179.153534 68.568359,170.219208 
	C72.681618,170.219208 76.612495,170.219208 80.906898,170.219208 
	C77.616776,182.278259 74.604248,194.168701 71.093040,205.910019 
	C68.471733,214.675537 62.857418,218.593048 53.777813,218.906006 
	C51.137798,218.996994 48.491997,218.919952 45.300735,218.919952 
	C46.338833,214.909454 47.273407,211.298904 48.349995,207.139725 
	C56.748795,209.338608 60.471607,205.329666 61.167194,197.088074 
z"/>
<path fill="#2B1714" opacity="1.000000" stroke="none" 
	d="
M431.794586,227.164032 
	C435.085022,226.737213 438.037262,226.480103 441.396851,226.183334 
	C441.557373,228.391800 441.310547,230.639938 440.892151,233.597260 
	C437.959625,244.542252 435.198639,254.778076 432.437683,265.013885 
	C432.371643,265.172943 432.306976,265.327942 432.244019,265.429047 
	C431.216187,268.694824 430.188019,272.010345 428.537231,275.660095 
	C424.944611,275.970276 421.974579,275.946259 419.004547,275.922241 
	C419.322815,273.802155 419.441010,271.628571 419.991669,269.570709 
	C423.762512,255.478165 427.624023,241.409866 431.794586,227.164032 
z"/>
<path fill="#D5312B" opacity="1.000000" stroke="none" 
	d="
M418.690979,276.111908 
	C421.974579,275.946259 424.944611,275.970276 428.353882,276.014618 
	C428.267365,279.098541 428.044037,282.253418 427.152496,285.206573 
	C425.345734,291.191467 425.798218,296.767426 428.132904,302.611511 
	C430.480225,308.487091 427.647949,314.665649 422.099457,317.888336 
	C417.281311,320.686737 410.633270,319.722321 406.491119,315.624146 
	C402.394196,311.570618 401.575165,304.590790 404.614380,299.527802 
	C404.954651,298.960938 405.237732,298.213837 405.756470,297.921783 
	C414.197205,293.170135 415.915283,284.522583 418.690979,276.111908 
M409.522980,314.175293 
	C413.474670,317.166473 417.613129,317.111877 421.484436,314.320099 
	C424.934601,311.832001 426.788177,308.358643 425.465851,303.924591 
	C424.225159,299.764404 421.529266,296.838776 417.137024,296.375519 
	C412.938019,295.932556 409.150635,297.298889 407.127930,301.372650 
	C404.935883,305.787354 405.140472,310.028534 409.522980,314.175293 
z"/>
<path fill="#707070" opacity="1.000000" stroke="none" 
	d="
M327.845123,283.129730 
	C330.254181,283.985596 333.111725,284.346741 333.955078,285.843140 
	C334.713440,287.188721 333.261108,289.780304 332.659271,292.355652 
	C333.230988,293.247223 334.267853,294.864197 335.304749,296.481171 
	C335.040466,296.756317 334.776154,297.031494 334.511841,297.306671 
	C332.037842,295.078613 329.563843,292.850525 326.480072,290.073303 
	C325.857086,293.331207 325.488007,295.261414 325.118927,297.191589 
	C324.560822,297.166718 324.002747,297.141846 323.444641,297.116974 
	C323.444641,292.844421 323.318359,288.562958 323.619232,284.311737 
	C323.653290,283.830383 326.092712,283.519287 327.845123,283.129730 
M328.380249,285.040039 
	C327.477722,285.813263 326.575226,286.586487 325.672699,287.359741 
	C326.612366,287.953369 327.575134,289.057281 328.486023,289.015961 
	C329.722229,288.959900 330.918640,288.027191 332.132141,287.470520 
	C331.181854,286.662628 330.231567,285.854706 328.380249,285.040039 
z"/>
<path fill="#E8E5E5" opacity="1.000000" stroke="none" 
	d="
M432.698425,265.506836 
	C435.198639,254.778076 437.959625,244.542252 440.905945,234.027939 
	C441.406769,233.799469 441.722198,233.849487 442.514191,233.948837 
	C440.370544,244.240097 437.778381,254.489517 435.056488,264.704346 
	C434.902710,265.281464 433.682861,265.574524 432.698425,265.506836 
z"/>
<path fill="#646464" opacity="1.000000" stroke="none" 
	d="
M59.801033,296.761780 
	C53.629658,297.511841 50.804691,296.219238 50.658173,291.781555 
	C50.573467,289.216095 51.864197,285.793976 53.754696,284.243042 
	C55.151394,283.097137 59.692738,283.423889 60.735981,284.747467 
	C62.401638,286.860718 62.631294,290.327240 62.821590,293.263519 
	C62.889442,294.310455 61.076683,295.479279 59.801033,296.761780 
M55.678749,295.284576 
	C58.585773,295.834564 60.956425,294.897125 61.073135,291.824615 
	C61.151207,289.769165 60.330956,287.297852 59.040157,285.731750 
	C58.385960,284.937958 54.576851,285.243011 54.309288,285.905548 
	C53.404217,288.146667 53.332695,290.764252 53.211601,293.251038 
	C53.185085,293.795502 54.269932,294.394073 55.678749,295.284576 
z"/>
<path fill="#646464" opacity="1.000000" stroke="none" 
	d="
M197.490891,296.487244 
	C196.213333,294.443848 194.705032,292.692139 194.382675,290.744171 
	C193.721008,286.745819 196.674973,283.326630 200.404938,283.070984 
	C204.249893,282.807465 207.217468,285.678345 207.409790,289.847595 
	C207.620529,294.416138 205.088486,297.257812 200.707489,297.245667 
	C199.736816,297.242981 198.767120,296.884644 197.490891,296.487244 
M203.092270,294.949982 
	C206.229187,292.543976 206.145767,289.372803 204.141739,286.669586 
	C203.294327,285.526489 199.784851,284.764771 199.054962,285.465240 
	C197.629288,286.833435 196.633743,289.368866 196.684479,291.390320 
	C196.763504,294.538422 198.999832,295.977203 203.092270,294.949982 
z"/>
<path fill="#666666" opacity="1.000000" stroke="none" 
	d="
M83.606033,289.106079 
	C83.606392,287.031555 83.606392,285.405823 83.606392,283.346680 
	C87.650238,283.737030 92.653336,281.014252 93.923233,286.533752 
	C95.200714,292.086273 90.007622,291.343719 86.342613,291.999756 
	C85.959770,293.638885 85.551643,295.386230 85.143524,297.133606 
	C84.630913,297.103027 84.118294,297.072479 83.605682,297.041931 
	C83.605682,294.546234 83.605682,292.050568 83.606033,289.106079 
M90.814262,285.363159 
	C89.231674,285.276093 87.649086,285.189026 85.638420,285.078400 
	C85.821266,286.991241 85.951973,288.358643 86.096199,289.867432 
	C89.013893,289.511108 92.732864,290.937439 90.814262,285.363159 
z"/>
<path fill="#767676" opacity="1.000000" stroke="none" 
	d="
M220.928558,288.989136 
	C220.167511,291.348511 219.427643,293.715118 218.626663,296.060883 
	C218.474579,296.506256 218.080414,296.868988 217.141434,298.201599 
	C215.711044,294.847229 214.623337,292.296509 213.074677,288.664764 
	C212.885284,291.952057 212.759903,294.128021 212.630066,296.381470 
	C209.809860,293.570709 210.040207,286.565918 213.251907,283.390656 
	C214.627411,286.821198 215.944824,290.106903 217.474960,293.923157 
	C218.125305,292.122833 218.618439,290.757721 219.670563,289.170593 
	C220.462555,288.962067 220.695557,288.975586 220.928558,288.989136 
z"/>
<path fill="#595959" opacity="1.000000" stroke="none" 
	d="
M160.154312,284.040344 
	C161.931137,288.153839 163.492722,291.980042 165.016937,295.821045 
	C165.107986,296.050476 164.899887,296.398590 164.827286,296.707153 
	C162.925735,295.487640 161.067688,293.397003 159.122910,293.312927 
	C157.338226,293.235748 155.460022,295.322174 153.828156,296.328766 
	C153.319016,292.451752 156.865234,284.663727 160.154312,284.040344 
z"/>
<path fill="#666666" opacity="1.000000" stroke="none" 
	d="
M361.097321,296.955292 
	C357.181671,294.347565 356.407318,290.661865 358.174957,287.220215 
	C359.147705,285.326263 362.037720,283.822449 364.298706,283.398499 
	C365.751434,283.126160 367.632507,285.138397 369.113617,286.004944 
	C365.854004,286.200378 362.109802,285.392670 360.907074,286.783203 
	C359.669434,288.214111 360.910309,291.788727 361.066650,294.425323 
	C363.486206,294.219116 365.905762,294.012878 368.423920,293.798279 
	C368.676300,296.705200 367.212036,297.655884 361.097321,296.955292 
z"/>
<path fill="#616161" opacity="1.000000" stroke="none" 
	d="
M229.153870,284.844421 
	C236.843491,283.085632 239.911179,284.251495 239.871750,289.212708 
	C239.852371,291.652344 238.530472,294.823425 236.697922,296.266724 
	C235.290146,297.375427 231.331390,297.197601 230.004074,295.971436 
	C228.268814,294.368378 227.752396,291.218323 227.242599,288.629272 
	C227.041031,287.605591 228.266998,286.300781 229.153870,284.844421 
M234.419754,295.443420 
	C238.008530,293.383392 239.549713,289.688721 237.238556,287.174835 
	C236.040131,285.871307 233.338882,285.949432 231.316544,285.403351 
	C230.768127,287.919159 229.838623,290.440765 229.876816,292.947632 
	C229.890289,293.832367 232.269073,294.681091 234.419754,295.443420 
z"/>
<path fill="#696969" opacity="1.000000" stroke="none" 
	d="
M311.870850,286.859161 
	C311.854065,289.753876 311.854065,292.218597 311.854065,294.941437 
	C314.673431,295.201050 317.197113,295.433441 319.720825,295.665833 
	C319.732666,295.980988 319.744507,296.296112 319.756348,296.611267 
	C316.569641,296.611267 313.382935,296.611267 309.979889,296.611267 
	C309.979889,292.398163 309.979889,287.997528 309.979889,283.704102 
	C313.358673,283.704102 316.465454,283.704102 319.572205,283.704102 
	C319.561798,283.900391 319.551361,284.096710 319.540955,284.292999 
	C316.989838,285.005066 314.438751,285.717102 311.870850,286.859161 
z"/>
<path fill="#5E5E5E" opacity="1.000000" stroke="none" 
	d="
M177.126007,286.968018 
	C177.276993,285.678009 177.427200,284.768768 177.577393,283.859497 
	C177.411514,283.899506 177.245636,283.939545 177.079758,283.979584 
	C177.079758,286.390594 176.284332,289.201385 177.251740,291.126160 
	C179.051514,294.706970 177.025742,296.324463 174.638702,297.089508 
	C171.472672,298.104218 168.491409,297.021881 168.089798,293.113861 
	C167.769623,289.998199 168.025208,286.823364 168.025208,283.674774 
	C168.672165,283.668091 169.319122,283.661377 169.966080,283.654694 
	C169.966080,285.970551 170.001770,288.287140 169.956360,290.602142 
	C169.907913,293.071686 170.018448,295.495117 173.292328,295.592468 
	C176.499466,295.687805 176.836517,293.206879 177.072586,290.834381 
	C177.187241,289.682159 177.113602,288.511200 177.126007,286.968018 
z"/>
<path fill="#696969" opacity="1.000000" stroke="none" 
	d="
M372.594177,290.034729 
	C372.594391,287.619751 372.594391,285.664764 372.594391,283.637146 
	C376.192627,283.637146 379.303070,283.637146 382.413544,283.637146 
	C382.437195,284.021851 382.460846,284.406525 382.484497,284.791229 
	C379.876709,284.955231 377.268951,285.119232 374.231079,285.310303 
	C374.571381,288.436401 374.908051,291.529022 375.285156,294.993378 
	C377.570587,295.201477 380.105316,295.432281 382.640076,295.663086 
	C382.655670,295.974335 382.671265,296.285614 382.686859,296.596863 
	C379.506622,296.596863 376.326385,296.596863 372.593964,296.596863 
	C372.593964,294.711456 372.593964,292.603088 372.594177,290.034729 
z"/>
<path fill="#595959" opacity="1.000000" stroke="none" 
	d="
M66.756348,296.035950 
	C66.695869,291.564606 66.695869,287.502014 66.695869,283.439423 
	C67.376938,283.262573 68.058006,283.085754 68.739067,282.908936 
	C70.582054,287.478149 72.425041,292.047333 74.268028,296.616547 
	C73.791565,296.856537 73.315102,297.096558 72.838631,297.336578 
	C71.736816,294.881866 70.635002,292.427185 69.533188,289.972504 
	C69.172188,290.026520 68.811195,290.080505 68.450195,290.134491 
	C68.450195,291.850494 68.559959,293.578400 68.375458,295.274353 
	C68.327438,295.715759 67.361275,296.057312 66.756348,296.035950 
z"/>
<path fill="#646464" opacity="1.000000" stroke="none" 
	d="
M298.618103,285.733002 
	C299.381012,286.985382 300.357819,287.985931 301.394745,288.919708 
	C303.089020,290.445435 304.822388,291.927643 306.539276,293.428223 
	C305.218994,294.694183 304.071838,296.712860 302.541351,297.064850 
	C299.618805,297.737000 296.577454,297.293854 295.693817,292.671631 
	C297.586639,293.823273 298.922089,295.121735 300.444580,295.401276 
	C301.569519,295.607849 302.938324,294.486542 304.198456,293.956848 
	C303.404816,293.072571 302.755493,291.950012 301.783020,291.360962 
	C300.397369,290.521637 298.533600,290.360748 297.338409,289.357086 
	C296.549316,288.694427 296.164764,286.982208 296.374115,285.888214 
	C296.526093,285.094177 297.947327,284.543030 298.802582,283.883545 
	C298.821411,284.406097 298.840240,284.928619 298.618103,285.733002 
z"/>
<path fill="#666666" opacity="1.000000" stroke="none" 
	d="
M262.818848,288.391663 
	C262.198517,286.563843 261.688812,285.093658 261.179138,283.623474 
	C261.658325,283.423828 262.137512,283.224182 262.616669,283.024567 
	C264.123474,286.603333 265.630280,290.182129 267.368500,294.310577 
	C268.999603,290.226044 270.403839,286.709564 271.808075,283.193054 
	C272.347748,283.419739 272.887421,283.646423 273.427124,283.873108 
	C271.651215,288.366577 269.875336,292.860046 268.099457,297.353546 
	C267.535858,297.404327 266.972260,297.455109 266.408661,297.505890 
	C265.248932,294.587036 264.089203,291.668182 262.818848,288.391663 
z"/>
<path fill="#696969" opacity="1.000000" stroke="none" 
	d="
M145.223846,296.321838 
	C142.030319,296.899780 138.805450,297.087921 135.317139,297.291443 
	C135.317139,292.388947 135.317139,288.145752 135.317139,283.605652 
	C138.593811,283.605652 141.703720,283.605652 144.813629,283.605652 
	C144.848465,284.002380 144.883286,284.399139 144.918106,284.795868 
	C142.499466,284.964355 140.080841,285.132812 137.535965,285.310089 
	C137.535965,288.515320 137.535965,291.623505 137.535965,294.892517 
	C140.081482,295.238129 142.636978,295.585114 145.223846,296.321838 
z"/>
<path fill="#666666" opacity="1.000000" stroke="none" 
	d="
M279.027832,297.175171 
	C277.720032,296.460144 276.191162,295.793365 276.139252,295.026642 
	C275.884979,291.270325 276.023987,287.487396 276.023987,283.714172 
	C279.668854,283.714172 282.752686,283.714172 285.836517,283.714172 
	C285.847595,284.106354 285.858643,284.498505 285.869720,284.890686 
	C283.387817,285.008789 280.905884,285.126923 278.451813,285.243744 
	C278.451813,288.601135 278.451813,291.711365 278.451813,295.140686 
	C281.009247,295.279358 283.554352,295.417358 286.099426,295.555389 
	C286.124664,295.984009 286.149902,296.412628 286.175171,296.841248 
	C283.945984,296.953278 281.716797,297.065308 279.027832,297.175171 
z"/>
<path fill="#646464" opacity="1.000000" stroke="none" 
	d="
M111.205643,283.196228 
	C114.016327,283.185486 116.375130,283.185486 118.733932,283.185486 
	C118.749237,283.728760 118.764534,284.272034 118.779839,284.815308 
	C116.317574,284.964722 113.855309,285.114136 111.410416,285.262482 
	C111.410416,288.538757 111.410416,291.639679 111.410416,295.062500 
	C113.791603,295.266418 116.290901,295.480438 118.790207,295.694458 
	C118.787651,296.024872 118.785103,296.355255 118.782555,296.685669 
	C115.697067,296.685669 112.611580,296.685669 108.938599,296.685669 
	C108.938599,292.948608 108.856781,289.009033 109.019958,285.079620 
	C109.046837,284.432526 110.148705,283.830078 111.205643,283.196228 
z"/>
<path fill="#5E5E5E" opacity="1.000000" stroke="none" 
	d="
M45.144867,293.867004 
	C45.869587,293.255341 46.380493,292.927277 46.891396,292.599213 
	C47.007103,293.158875 47.402466,294.045837 47.192928,294.224854 
	C45.876625,295.349640 44.453918,297.091919 43.012344,297.144379 
	C41.116879,297.213348 38.437634,296.466675 37.394764,295.087952 
	C34.945488,291.849884 34.943848,288.187775 37.696060,285.174377 
	C38.439323,288.428772 39.020691,291.670624 40.106735,294.733551 
	C40.225132,295.067444 43.252796,294.369812 45.144867,293.867004 
z"/>
<path fill="#616161" opacity="1.000000" stroke="none" 
	d="
M122.147614,284.721252 
	C125.281677,283.915283 128.699860,283.362701 132.118042,282.810150 
	C132.212082,283.366119 132.306137,283.922119 132.400177,284.478119 
	C131.017090,284.829620 129.634003,285.181122 127.926407,285.615082 
	C127.926407,289.389679 127.926407,293.150635 127.926407,296.911621 
	C127.413788,296.955200 126.901176,296.998779 126.388557,297.042358 
	C126.198593,293.207031 126.008629,289.371704 125.807823,285.317627 
	C124.647568,285.199768 123.539650,285.087189 122.147614,284.721252 
z"/>
<path fill="#616161" opacity="1.000000" stroke="none" 
	d="
M246.930695,294.720886 
	C246.926804,291.457733 246.926804,288.654572 246.926804,285.535919 
	C245.447372,285.221802 244.032028,284.921265 242.616669,284.620758 
	C242.643036,284.324646 242.669403,284.028564 242.695755,283.732452 
	C246.148575,283.732452 249.601379,283.732452 253.054199,283.732452 
	C253.088684,284.009399 253.123184,284.286316 253.157684,284.563263 
	C251.870895,284.856171 250.584106,285.149109 248.686676,285.581024 
	C248.686676,289.279785 248.686676,293.106018 248.686676,296.932251 
	C248.331528,296.970428 247.976379,297.008606 247.621231,297.046783 
	C247.392349,296.424805 247.163483,295.802856 246.930695,294.720886 
z"/>
<path fill="#616161" opacity="1.000000" stroke="none" 
	d="
M188.282867,285.686890 
	C188.122681,289.698700 188.122681,293.305206 188.122681,296.911713 
	C187.660599,296.958984 187.198502,297.006226 186.736420,297.053467 
	C186.736420,293.366577 186.736420,289.679657 186.736420,285.855042 
	C184.682709,285.305359 183.348801,284.948334 182.014893,284.591309 
	C182.007629,284.350647 182.000351,284.109985 181.993073,283.869324 
	C185.411041,283.869324 188.829010,283.869324 192.246979,283.869324 
	C192.289566,284.105957 192.332153,284.342590 192.374756,284.579224 
	C191.064178,284.813354 189.753616,285.047485 188.282867,285.686890 
z"/>
<path fill="#767676" opacity="1.000000" stroke="none" 
	d="
M257.763824,283.525452 
	C258.102386,288.176147 258.102386,292.623230 258.102386,297.070282 
	C257.581818,297.054871 257.061218,297.039429 256.540649,297.024017 
	C256.490662,292.456360 254.881210,287.887634 257.763824,283.525452 
z"/>
<path fill="#696969" opacity="1.000000" stroke="none" 
	d="
M97.073944,286.467529 
	C97.284897,285.164429 97.494682,284.305267 97.704475,283.446136 
	C98.090324,283.451843 98.476181,283.457581 98.862030,283.463318 
	C99.026581,287.217194 99.191132,290.971069 99.365265,294.943634 
	C101.525902,295.217010 103.554298,295.473663 105.582695,295.730316 
	C105.592964,296.022400 105.603241,296.314484 105.613510,296.606567 
	C102.949341,296.606567 100.285172,296.606567 97.072777,296.606567 
	C97.072777,293.446289 97.072777,290.178894 97.073944,286.467529 
z"/>
<path fill="#646464" opacity="1.000000" stroke="none" 
	d="
M75.938522,287.283813 
	C76.652428,285.622009 77.305115,284.286316 77.957809,282.950653 
	C78.400398,283.070404 78.842987,283.190155 79.285576,283.309906 
	C79.285576,287.801361 79.285576,292.292816 79.285576,296.784241 
	C78.965416,296.831024 78.645256,296.877838 78.325104,296.924622 
	C78.110619,294.083557 77.896133,291.242493 77.548859,286.642426 
	C76.720657,288.493195 76.426476,289.150604 76.132294,289.808014 
	C75.935448,289.737640 75.738609,289.667267 75.541763,289.596863 
	C75.653618,288.934570 75.765465,288.272278 75.938522,287.283813 
z"/>
<path fill="#646464" opacity="1.000000" stroke="none" 
	d="
M337.790100,283.484863 
	C340.149689,287.249817 342.201172,290.941193 344.081696,294.717712 
	C344.326416,295.209167 343.890594,296.416870 343.395721,296.773499 
	C343.034119,297.034088 341.568024,296.608093 341.431213,296.204437 
	C339.999969,291.981812 338.737885,287.701813 337.790100,283.484863 
z"/>
<path fill="#666666" opacity="1.000000" stroke="none" 
	d="
M221.166992,288.732178 
	C220.695557,288.975586 220.462555,288.962067 219.880829,288.914307 
	C220.321594,286.896820 221.111084,284.913666 221.900574,282.930481 
	C222.392578,283.046082 222.884567,283.161652 223.376572,283.277252 
	C223.376572,287.788727 223.376572,292.300232 223.376572,296.811737 
	C223.081146,296.864502 222.785721,296.917236 222.490295,296.970001 
	C222.128662,294.138397 221.767029,291.306824 221.166992,288.732178 
z"/>
<path fill="#616161" opacity="1.000000" stroke="none" 
	d="
M351.902161,295.610474 
	C351.869659,291.281738 351.869659,287.415222 351.869659,283.548706 
	C352.373962,283.540771 352.878235,283.532806 353.382538,283.524872 
	C353.382538,287.905487 353.382538,292.286072 353.382538,296.666687 
	C352.899902,296.468689 352.417267,296.270691 351.902161,295.610474 
z"/>
<path fill="#E9E6E6" opacity="1.000000" stroke="none" 
	d="
M460.109741,245.651093 
	C457.501343,245.651062 455.370300,245.651062 452.593628,245.651062 
	C453.255249,242.975983 453.790527,240.811737 454.440521,238.183670 
	C460.175781,238.183670 465.787140,238.047241 471.383545,238.276672 
	C472.838379,238.336304 474.246368,239.538666 475.675842,240.216156 
	C474.294189,242.006683 473.185455,244.938263 471.473480,245.347748 
	C468.018219,246.174210 464.235046,245.629990 460.109741,245.651093 
z"/>
<path fill="#F9F8F8" opacity="1.000000" stroke="none" 
	d="
M42.529633,238.311661 
	C43.285831,239.809402 44.070225,241.349396 43.800190,242.674515 
	C43.041344,246.398392 41.848164,250.033752 40.792759,253.824371 
	C33.645077,253.824371 26.551575,253.824371 19.472691,253.824371 
	C19.445572,253.478745 19.391699,253.304306 19.425400,253.148865 
	C22.672453,238.173935 22.672874,238.174026 42.529633,238.311661 
z"/>
<path fill="#FEFCFC" opacity="1.000000" stroke="none" 
	d="
M105.751633,197.234070 
	C99.816132,197.233810 94.350273,197.233810 88.123528,197.233810 
	C89.407112,192.490463 90.422501,188.215454 91.794029,184.057938 
	C92.114616,183.086151 93.622093,181.891113 94.618858,181.857819 
	C100.710625,181.654388 106.812584,181.756088 113.808899,181.756088 
	C112.399544,186.989960 111.362495,191.476379 109.871292,195.806366 
	C109.595734,196.606461 107.484985,196.774551 105.751633,197.234070 
z"/>
<path fill="#FEFCFC" opacity="1.000000" stroke="none" 
	d="
M188.634903,183.429718 
	C192.349960,182.605042 195.824585,181.969818 199.326035,181.735428 
	C202.751175,181.506149 206.203674,181.685516 210.434189,181.685516 
	C209.096970,186.891418 208.034012,191.336395 206.745651,195.715042 
	C206.551956,196.373398 205.311874,197.134750 204.543365,197.148438 
	C198.113052,197.262802 191.679810,197.213440 184.768326,197.213440 
	C186.081497,192.369659 187.243851,188.082153 188.634903,183.429718 
z"/>
<path fill="#E9E6E6" opacity="1.000000" stroke="none" 
	d="
M265.621979,244.926056 
	C258.653778,245.134872 252.036362,245.134872 245.412262,245.134872 
	C245.319702,238.685410 245.770172,238.189713 251.940399,238.184677 
	C255.435104,238.181839 258.929840,238.175201 262.424500,238.186432 
	C268.708527,238.206619 268.980988,238.713348 265.621979,244.926056 
z"/>
<path fill="#F9F8F8" opacity="1.000000" stroke="none" 
	d="
M390.572998,242.643295 
	C391.786438,240.954483 392.785950,238.577271 393.924622,238.508621 
	C400.117279,238.135284 406.344208,238.331253 413.307983,238.331253 
	C411.828827,244.021271 410.601379,248.743011 409.311951,253.703094 
	C402.094910,253.703094 395.067017,253.703094 387.667084,253.703094 
	C388.614441,250.031281 389.518860,246.525894 390.572998,242.643295 
z"/>
<path fill="#FBFAFA" opacity="1.000000" stroke="none" 
	d="
M164.601807,252.581528 
	C169.575699,234.967590 165.688736,238.550247 182.668304,238.132019 
	C184.766068,238.080353 186.866211,238.124985 190.097763,238.124985 
	C187.738892,246.756302 185.689423,254.499969 183.425064,262.180267 
	C183.186768,262.988556 181.695862,263.926300 180.763977,263.950470 
	C174.661484,264.108704 168.552902,264.031952 161.693542,264.031952 
	C162.726257,259.895050 163.591171,256.430359 164.601807,252.581528 
z"/>
<path fill="#FDF6F6" opacity="1.000000" stroke="none" 
	d="
M142.421570,181.689148 
	C149.104828,181.670059 155.331238,181.670059 161.695862,181.670059 
	C161.605728,186.956284 159.894775,189.248016 155.045502,188.959930 
	C149.784073,188.647339 144.489716,188.889053 137.805908,188.889053 
	C139.545395,185.885544 140.755051,183.796875 142.421570,181.689148 
z"/>
<path fill="#E8E5E5" opacity="1.000000" stroke="none" 
	d="
M355.878174,238.180603 
	C357.680328,238.180939 359.082764,237.912201 360.318695,238.250977 
	C361.801331,238.657379 363.141968,239.581757 364.544098,240.281860 
	C363.147339,242.053772 361.886292,245.200851 360.329773,245.354462 
	C354.281219,245.951462 348.138794,245.597580 341.452942,245.597580 
	C342.151611,242.911453 342.720001,240.726196 343.382141,238.180603 
	C347.476410,238.180603 351.440582,238.180603 355.878174,238.180603 
z"/>
<path fill="#FEFAF9" opacity="1.000000" stroke="none" 
	d="
M409.220093,313.917908 
	C405.140472,310.028534 404.935883,305.787354 407.127930,301.372650 
	C409.150635,297.298889 412.938019,295.932556 417.137024,296.375519 
	C421.529266,296.838776 424.225159,299.764404 425.465851,303.924591 
	C426.788177,308.358643 424.934601,311.832001 421.484436,314.320099 
	C417.613129,317.111877 413.474670,317.166473 409.220093,313.917908 
z"/>
<path fill="#F7F7F7" opacity="1.000000" stroke="none" 
	d="
M328.830780,285.043396 
	C330.231567,285.854706 331.181854,286.662628 332.132141,287.470520 
	C330.918640,288.027191 329.722229,288.959900 328.486023,289.015961 
	C327.575134,289.057281 326.612366,287.953369 325.672699,287.359741 
	C326.575226,286.586487 327.477722,285.813263 328.830780,285.043396 
z"/>
<path fill="#F7F7F7" opacity="1.000000" stroke="none" 
	d="
M55.260857,295.126160 
	C54.269932,294.394073 53.185085,293.795502 53.211601,293.251038 
	C53.332695,290.764252 53.404217,288.146667 54.309288,285.905548 
	C54.576851,285.243011 58.385960,284.937958 59.040157,285.731750 
	C60.330956,287.297852 61.151207,289.769165 61.073135,291.824615 
	C60.956425,294.897125 58.585773,295.834564 55.260857,295.126160 
z"/>
<path fill="#F7F7F7" opacity="1.000000" stroke="none" 
	d="
M202.677658,295.107056 
	C198.999832,295.977203 196.763504,294.538422 196.684479,291.390320 
	C196.633743,289.368866 197.629288,286.833435 199.054962,285.465240 
	C199.784851,284.764771 203.294327,285.526489 204.141739,286.669586 
	C206.145767,289.372803 206.229187,292.543976 202.677658,295.107056 
z"/>
<path fill="#F7F7F7" opacity="1.000000" stroke="none" 
	d="
M91.142029,285.622314 
	C92.732864,290.937439 89.013893,289.511108 86.096199,289.867432 
	C85.951973,288.358643 85.821266,286.991241 85.638420,285.078400 
	C87.649086,285.189026 89.231674,285.276093 91.142029,285.622314 
z"/>
<path fill="#FBFAFA" opacity="1.000000" stroke="none" 
	d="
M233.993835,295.494843 
	C232.269073,294.681091 229.890289,293.832367 229.876816,292.947632 
	C229.838623,290.440765 230.768127,287.919159 231.316559,285.403351 
	C233.338882,285.949432 236.040131,285.871307 237.238556,287.174835 
	C239.549713,289.688721 238.008530,293.383392 233.993835,295.494843 
z"/>
</svg>