<?xml version="1.0" encoding="UTF-8"?>
<!DOCTYPE svg PUBLIC "-//W3C//DTD SVG 1.1//EN" "http://www.w3.org/Graphics/SVG/1.1/DTD/svg11.dtd">
<!-- Creator: CorelDRAW 2021 (64-Bit) -->
<svg xmlns="http://www.w3.org/2000/svg" xml:space="preserve" width="8in" height="4in" version="1.1" style="shape-rendering:geometricPrecision; text-rendering:geometricPrecision; image-rendering:optimizeQuality; fill-rule:evenodd; clip-rule:evenodd"
viewBox="0 0 8000 4000"
 xmlns:xlink="http://www.w3.org/1999/xlink"
 xmlns:xodm="http://www.corel.com/coreldraw/odm/2003">
 <defs>
  <style type="text/css">
   <![CDATA[
    .fil0 {fill:#171312}
    .fil1 {fill:#DA251C}
    .fil5 {fill:#171312;fill-rule:nonzero}
    .fil2 {fill:#171312;fill-rule:nonzero}
    .fil4 {fill:#DA251C;fill-rule:nonzero}
    .fil3 {fill:#DA251C;fill-rule:nonzero}
   ]]>
  </style>
 </defs>
 <g id="Layer_x0020_1">
  <metadata id="CorelCorpID_0Corel-Layer"/>
  <path class="fil0" d="M6753.54 2389.79l-43.67 174.87c-6.67,32.54 -13.47,62.56 -19.12,102.97 -4.81,33.34 -2.11,70.55 3.11,105.95 8.57,43.56 24.37,100.09 27.63,142.62 11.05,144.37 -100.49,259.13 -252.31,222.05 -107.56,-26.27 -192.34,-144.87 -132.23,-283.94 20.94,-44.74 52.99,-80.69 80.73,-118.81 18.19,-26.81 35.16,-56.63 52.14,-91.1 36.27,-82.54 56.68,-169.02 80.65,-255.7l203.07 1.09zm-133.59 460.52l30.12 11.95 0.88 1.52 -4.23 32.11 23.06 22.38c0.11,0.72 0.2,1.44 0.3,2.16l-16.07 27.81 12.58 29.12c-0.23,0.92 -0.47,1.84 -0.72,2.75l-25.16 19.29 0.48 31.48c-0.64,0.86 -1.28,1.71 -1.94,2.56l-30.41 8.14 -11.52 29.04c-1.02,0.61 -2.06,1.22 -3.1,1.81l-30.96 -4.08 -21.73 22.4c-1.2,0.18 -2.4,0.35 -3.6,0.5l-27.02 -15.61 -28.6 12.36c-1.2,-0.3 -2.4,-0.61 -3.59,-0.93l-18.97 -24.73 -31.37 0.48c-0.9,-0.66 -1.8,-1.33 -2.68,-2.01l-8.12 -30.33 -29.38 -11.65c-0.52,-0.85 -1.02,-1.71 -1.52,-2.57l4.13 -31.35 -22.96 -22.28c-0.12,-0.79 -0.22,-1.57 -0.33,-2.37l16.01 -27.7 -12.79 -29.59c0.16,-0.65 0.32,-1.29 0.49,-1.93l25.6 -19.63 -0.49 -32.59 0.86 -1.15 31.5 -8.43 12.08 -30.45 1 -0.6 32.5 4.29 22.92 -23.62 0.94 -0.13 28.5 16.46 30.11 -13.01 1.08 0.28 19.96 26.04 32.71 -0.49 1.01 0.78 8.46 31.58z"/>
  <path class="fil1" d="M6743.54 2379.79l-43.67 174.87c-6.67,32.54 -13.47,62.56 -19.12,102.97 -4.81,33.34 -2.11,70.55 3.11,105.95 8.3,42.16 22.85,94.73 27.04,136.02 14.99,147.59 -97.59,266.25 -251.72,228.65 -107.56,-26.24 -192.34,-144.87 -132.23,-283.94 20.94,-44.74 52.99,-80.69 80.73,-118.81 18.19,-26.81 35.16,-56.63 52.14,-91.1 36.27,-82.54 56.68,-169.02 80.65,-255.7l203.07 1.09zm-133.59 460.52l30.12 11.95 0.88 1.52 -4.23 32.11 23.06 22.38c0.11,0.72 0.2,1.44 0.3,2.16l-16.07 27.81 12.58 29.12c-0.23,0.92 -0.47,1.84 -0.72,2.75l-25.16 19.29 0.48 31.48c-0.64,0.86 -1.28,1.71 -1.94,2.56l-30.41 8.14 -11.52 29.04c-1.02,0.61 -2.06,1.22 -3.1,1.81l-30.96 -4.08 -21.73 22.4c-1.2,0.18 -2.4,0.35 -3.6,0.5l-27.02 -15.61 -28.6 12.36c-1.2,-0.3 -2.4,-0.61 -3.59,-0.93l-18.97 -24.73 -31.37 0.48c-0.9,-0.66 -1.8,-1.33 -2.68,-2.01l-8.12 -30.33 -29.38 -11.65c-0.52,-0.85 -1.02,-1.71 -1.52,-2.57l4.13 -31.35 -22.96 -22.28c-0.12,-0.79 -0.22,-1.57 -0.33,-2.37l16.01 -27.7 -12.79 -29.59c0.16,-0.65 0.32,-1.29 0.49,-1.93l25.6 -19.63 -0.49 -32.59 0.86 -1.15 31.5 -8.43 12.08 -30.45 1 -0.6 32.5 4.29 22.92 -23.62 0.94 -0.13 28.5 16.46 30.11 -13.01 1.08 0.28 19.96 26.04 32.71 -0.49 1.01 0.78 8.46 31.58z"/>
  <path class="fil0" d="M6768.41 1573.27c14.41,-48.79 23.15,-98.85 25.44,-150.71 -5.11,-52.51 -22.43,-107.32 -49.45,-159.53 -23.44,-56.47 -29.01,-112.2 -12.99,-167.02 16.07,-80.81 56.52,-137.9 100.46,-191.6 5.37,-4.13 10.28,-5 14.72,-2.62 9.16,4.92 9.62,12.36 9.35,21.13 -1.81,57.15 -3.61,114.3 -5.42,171.45 -0.8,11.79 4.41,21.85 15.62,30.19 51.13,21.37 103.22,41.39 184.72,19.22 8.32,-2.57 14.67,-8.96 20.73,-15.9 13.56,-34.43 15.72,-76.22 12.7,-121.37 -1.9,-28.32 -3.8,-56.64 -5.7,-84.96 4.15,-15.29 14.24,-19.11 25.18,-21.3 9.83,-1.68 19.99,-0.06 32.39,24.61 20.94,38.46 41.87,76.93 62.81,115.39 16.02,42.91 25.81,87.83 13.44,139.91 -6.91,25.29 -14.69,46.9 -30.69,68.62 -24.56,28.48 -48.59,57.99 -76.54,79.93 -53.52,47.03 -107.65,132.62 -125.81,200.58l-29.85 110.99 -199.17 0 18.06 -66.99z"/>
  <path class="fil1" d="M6758.41 1563.27c14.41,-48.79 23.15,-98.85 25.44,-150.71 -5.11,-52.51 -22.43,-107.32 -49.45,-159.53 -23.44,-56.47 -29.01,-112.2 -12.99,-167.02 15.77,-79.32 55.04,-135.78 98.03,-188.62 4.72,-5.8 11.78,-9.68 18.72,-4.61 6.29,4.58 8.11,9.46 7.89,16.68 -1.85,58.3 -3.69,116.61 -5.53,174.91 -0.8,11.79 4.41,21.85 15.62,30.19 51.13,21.37 103.22,41.39 184.72,19.22 8.32,-2.57 14.67,-8.96 20.73,-15.9 13.56,-34.43 15.72,-76.22 12.7,-121.37 -1.77,-26.39 -3.54,-52.78 -5.31,-79.17 -1.07,-16.52 9.73,-24.08 24.79,-27.1 9.83,-1.68 19.99,-0.06 32.39,24.61 20.94,38.46 41.87,76.93 62.81,115.39 16.02,42.91 25.81,87.83 13.44,139.91 -6.91,25.29 -14.69,46.9 -30.69,68.62 -24.56,28.48 -48.59,57.99 -76.54,79.93 -53.52,47.03 -107.65,132.62 -125.81,200.58l-29.85 110.99 -199.17 0 18.06 -66.99z"/>
  <path class="fil2" d="M1483.5 864.72l-112.25 428.67c-41.79,163.5 -138.28,248.83 -289.51,256.33l-186 0 44.87 -167 131.42 -0.5c37.99,-1 66.63,-22.17 86.13,-63.83l119.85 -453.67 205.5 0z"/>
  <path class="fil2" d="M1337.5 1549.22l122.76 -465.33c44.44,-140 140.91,-213 289.25,-219.17l231.42 0.5c132.69,9 183.81,81.5 153.41,217.17l-123.5 467.83 -181.67 0 55.09 -208 -303.59 -1.5 -54.67 208.5 -188.5 0zm308.85 -450.67l-19.77 72.83 303.17 0 15.7 -57.17c18.46,-52.67 7.96,-82.17 -31.36,-88.33l-183.75 0.5c-49.02,1.17 -76.98,25.33 -83.99,72.17z"/>
  <path class="fil2" d="M2218.87 867.56l474.17 0c148.11,7.5 202.3,85.67 162.41,234.5 -39.87,148.67 -131.26,227.33 -274.15,235.83l-281.83 0 -56.38 212.83 -204.58 0.5 180.37 -683.67zm131.19 289.67l253.67 -1c37.28,0.33 61.89,-17.67 73.52,-54 11.62,-36.33 -2.58,-57.5 -42.57,-63.67l-253.33 0 -31.28 118.67z"/>
  <path class="fil2" d="M2766.83 1549.22l122.76 -465.33c44.44,-140 140.91,-213 289.25,-219.17l231.42 0.5c132.69,9 183.81,81.5 153.41,217.17l-123.5 467.83 -181.67 0 55.09 -208 -303.59 -1.5 -54.67 208.5 -188.5 0zm308.85 -450.67l-19.77 72.83 303.17 0 15.7 -57.17c18.46,-52.67 7.96,-82.17 -31.36,-88.33l-183.75 0.5c-49.02,1.17 -76.98,25.33 -83.99,72.17z"/>
  <path class="fil2" d="M3473.67 1554.22l181.44 -687.17 464.33 0c134.63,-2.83 186.06,69.83 154.22,218.33l-123.59 468.33 -182.17 0 116.19 -429.33c15.41,-44.17 2.29,-64.83 -39.17,-62l-252.83 0 -129.43 491.83 -189 0z"/>
  <path class="fil2" d="M4860.83 1551.22l-481.33 0c-136.66,-8.17 -176.34,-122 -119.2,-341.5 57.33,-219.67 161.43,-333.17 311.99,-340.67l468.33 0 -43.87 166 -415.08 0.5c-34.95,-1.33 -57.4,7.5 -67.31,26.33l-26.28 58.67 486.75 0.5 -44.38 164 -482.7 -1.83 -5.81 38.5c-3.99,32.5 4.78,50.17 26.54,52.67l439.06 -0.33 -46.7 177.17z"/>
  <path class="fil2" d="M5659.06 1046.39l-378.5 0c-25.67,0 -45.69,1.17 -59.93,3.67 -14.22,2.33 -27.85,12.33 -41.25,30 -0.3,22.17 6.35,34.5 20.22,37.33 13.87,2.83 35.81,4.17 65.81,4.17l185 0c73.48,4.17 121.96,25.67 145.26,64.5 23.17,38.67 25.81,92.67 7.62,162 -22.53,69.33 -55.25,120.5 -98.52,153.67 -43.07,33 -108.22,50.17 -195.44,51.5l-413 0 46.23 -175.33 392.67 0c33.83,0 59.86,-1.17 77.94,-3.67 18.07,-2.5 32.37,-15.5 42.78,-39.33 0.92,-18.83 -6.39,-30.17 -21.46,-33.83 -15.2,-3.83 -41.41,-5.67 -78.41,-5.67l-178.83 0c-78.67,0 -131.36,-19.17 -157.71,-57.67 -26.39,-38.33 -30.65,-91.67 -12.67,-159.67 24.36,-71.33 58.66,-123 102.63,-155.33 43.93,-32.17 108.39,-50.17 192.87,-54.17l403.33 0 -46.64 177.83z"/>
  <path class="fil2" d="M6235.83 1551.22l-481.33 0c-136.66,-8.17 -176.34,-122 -119.2,-341.5 57.33,-219.67 161.43,-333.17 311.99,-340.67l468.33 0 -43.87 166 -415.08 0.5c-34.95,-1.33 -57.4,7.5 -67.31,26.33l-26.28 58.67 486.75 0.5 -44.38 164 -482.7 -1.83 -5.81 38.5c-3.99,32.5 4.78,50.17 26.54,52.67l439.06 -0.33 -46.7 177.17z"/>
  <g id="_2258919318752">
   <path class="fil3" d="M1473.5 854.72l-112.25 428.67c-41.79,163.5 -138.28,248.83 -289.51,256.33l-186 0 44.87 -167 131.42 -0.5c37.99,-1 66.63,-22.17 86.13,-63.83l119.85 -453.67 205.5 0z"/>
   <path class="fil3" d="M1327.5 1539.22l122.76 -465.33c44.44,-140 140.91,-213 289.25,-219.17l231.42 0.5c132.69,9 183.81,81.5 153.41,217.17l-123.5 467.83 -181.67 0 55.09 -208 -303.59 -1.5 -54.67 208.5 -188.5 0zm308.85 -450.67l-19.77 72.83 303.17 0 15.7 -57.17c18.46,-52.67 7.96,-82.17 -31.36,-88.33l-183.75 0.5c-49.02,1.17 -76.98,25.33 -83.99,72.17z"/>
   <path class="fil3" d="M2208.87 857.56l474.17 0c148.11,7.5 202.3,85.67 162.41,234.5 -39.87,148.67 -131.26,227.33 -274.15,235.83l-281.83 0 -56.38 212.83 -204.58 0.5 180.37 -683.67zm131.19 289.67l253.67 -1c37.28,0.33 61.89,-17.67 73.52,-54 11.62,-36.33 -2.58,-57.5 -42.57,-63.67l-253.33 0 -31.28 118.67z"/>
   <path class="fil3" d="M2756.83 1539.22l122.76 -465.33c44.44,-140 140.91,-213 289.25,-219.17l231.42 0.5c132.69,9 183.81,81.5 153.41,217.17l-123.5 467.83 -181.67 0 55.09 -208 -303.59 -1.5 -54.67 208.5 -188.5 0zm308.85 -450.67l-19.77 72.83 303.17 0 15.7 -57.17c18.46,-52.67 7.96,-82.17 -31.36,-88.33l-183.75 0.5c-49.02,1.17 -76.98,25.33 -83.99,72.17z"/>
   <path class="fil3" d="M3463.67 1544.22l181.44 -687.17 464.33 0c134.63,-2.83 186.06,69.83 154.22,218.33l-123.59 468.33 -182.17 0 116.19 -429.33c15.41,-44.17 2.29,-64.83 -39.17,-62l-252.83 0 -129.43 491.83 -189 0z"/>
   <path class="fil3" d="M4850.83 1541.22l-481.33 0c-136.66,-8.17 -176.34,-122 -119.2,-341.5 57.33,-219.67 161.43,-333.17 311.99,-340.67l468.33 0 -43.87 166 -415.08 0.5c-34.95,-1.33 -57.4,7.5 -67.31,26.33l-26.28 58.67 486.75 0.5 -44.38 164 -482.7 -1.83 -5.81 38.5c-3.99,32.5 4.78,50.17 26.54,52.67l439.06 -0.33 -46.7 177.17z"/>
   <path class="fil3" d="M5649.06 1036.39l-378.5 0c-25.67,0 -45.69,1.17 -59.93,3.67 -14.22,2.33 -27.85,12.33 -41.25,30 -0.3,22.17 6.35,34.5 20.22,37.33 13.87,2.83 35.81,4.17 65.81,4.17l185 0c73.48,4.17 121.96,25.67 145.26,64.5 23.17,38.67 25.81,92.67 7.62,162 -22.53,69.33 -55.25,120.5 -98.52,153.67 -43.07,33 -108.22,50.17 -195.44,51.5l-413 0 46.23 -175.33 392.67 0c33.83,0 59.86,-1.17 77.94,-3.67 18.07,-2.5 32.37,-15.5 42.78,-39.33 0.92,-18.83 -6.39,-30.17 -21.46,-33.83 -15.2,-3.83 -41.41,-5.67 -78.41,-5.67l-178.83 0c-78.67,0 -131.36,-19.17 -157.71,-57.67 -26.39,-38.33 -30.65,-91.67 -12.67,-159.67 24.36,-71.33 58.66,-123 102.63,-155.33 43.93,-32.17 108.39,-50.17 192.87,-54.17l403.33 0 -46.64 177.83z"/>
   <path class="fil3" d="M6225.83 1541.22l-481.33 0c-136.66,-8.17 -176.34,-122 -119.2,-341.5 57.33,-219.67 161.43,-333.17 311.99,-340.67l468.33 0 -43.87 166 -415.08 0.5c-34.95,-1.33 -57.4,7.5 -67.31,26.33l-26.28 58.67 486.75 0.5 -44.38 164 -482.7 -1.83 -5.81 38.5c-3.99,32.5 4.78,50.17 26.54,52.67l439.06 -0.33 -46.7 177.17z"/>
  </g>
  <path class="fil4" d="M386.72 2359.24l122.76 -465.33c44.44,-140 140.91,-213 289.25,-219.17l231.42 0.5c132.69,9 183.81,81.5 153.41,217.17l-123.5 467.83 -181.67 0 55.09 -208 -303.59 -1.5 -54.67 208.5 -188.5 0zm308.85 -450.67l-19.77 72.83 303.17 0 15.7 -57.17c18.46,-52.67 7.96,-82.17 -31.36,-88.33l-183.75 0.5c-49.02,1.17 -76.98,25.33 -83.99,72.17zm1244.77 -230.5l-181.03 684.67 -462.33 0c-134.25,2.5 -185.53,-70 -153.8,-217.83l123.26 -466.33 181.17 0 -115.37 427.33c-15.4,44.17 -2.62,64.83 38.68,62l251.83 0 129.02 -489.33 188.58 -0.5zm771.94 -1l-50.88 193.5 -308.48 0.59 -125.71 491.97 -206.69 0.13 127.02 -493.61 -227 -0.09 51.21 -192.5 740.52 0zm362.17 694l-324.33 0c-144.25,0.5 -185.24,-115.5 -123.11,-348.17 61.07,-235.33 168.13,-353.67 321.34,-355l266.08 0.5c160.33,-3 208.87,110.67 145.81,340.83 -49.87,238.17 -145.14,358.83 -285.8,361.83zm-278.61 -237.33c4.72,31.17 21.66,49.83 51.04,55.67l191.41 -0.5c33.1,-3.67 58.37,-18.5 75.63,-44.5 18.98,-18.17 37.27,-62.67 55.05,-133.5 17.94,-70.83 20.34,-116 7.7,-135.5 -11.98,-20.5 -33.9,-32.17 -65.57,-35.17l-147.5 0c-43.21,3.33 -76.77,24 -101,62 -14.56,17.67 -30.4,57.33 -47.39,119.33 -17,62 -23.48,99.5 -19.38,112.17zm1054.42 -456.17l473.67 0c139.26,23.83 194.56,101.33 165.9,232.5 -17.57,96 -68.19,172 -151.53,228l58.77 225.17 -228 0 -57.55 -215.33 -181.17 0 -55.88 212.83 -205.08 0.5 180.87 -683.67zm131.19 289.67l251.42 0.5c38.61,-0.67 63.64,-19.17 75.26,-55.5 11.62,-36.33 -2.41,-57.5 -42.07,-63.67l-253.33 0 -31.28 118.67zm1106.77 394l-481.33 0c-136.66,-8.17 -176.34,-122 -119.2,-341.5 57.33,-219.67 161.43,-333.17 311.99,-340.67l468.33 0 -43.87 166 -415.08 0.5c-34.95,-1.33 -57.4,7.5 -67.31,26.33l-26.28 58.67 486.75 0.5 -44.38 164 -482.7 -1.83 -5.81 38.5c-3.99,32.5 4.78,50.17 26.54,52.67l439.06 -0.33 -46.7 177.17zm215.71 -683.67l474.17 0c148.11,7.5 202.3,85.67 162.41,234.5 -39.87,148.67 -131.26,227.33 -274.15,235.83l-281.83 0 -56.38 212.83 -204.58 0.5 180.37 -683.67zm131.19 289.67l253.67 -1c37.28,0.33 61.89,-17.67 73.52,-54 11.62,-36.33 -2.58,-57.5 -42.57,-63.67l-253.33 0 -31.28 118.67zm416.76 392l122.76 -465.33c44.44,-140 140.91,-213 289.25,-219.17l231.42 0.5c132.69,9 183.81,81.5 153.41,217.17l-123.5 467.83 -181.67 0 55.09 -208 -303.59 -1.5 -54.67 208.5 -188.5 0zm308.85 -450.67l-19.77 72.83 303.17 0 15.7 -57.17c18.46,-52.67 7.96,-82.17 -31.36,-88.33l-183.75 0.5c-49.02,1.17 -76.98,25.33 -83.99,72.17zm580.19 -230l199.67 0 -179.87 683.67 -204.17 0 184.37 -683.67zm235.5 -1l473.67 0c139.26,23.83 194.56,101.33 165.9,232.5 -17.57,96 -68.19,172 -151.53,228l58.77 225.17 -228 0 -57.55 -215.33 -181.17 0 -55.88 212.83 -205.08 0.5 180.87 -683.67zm131.19 289.67l251.42 0.5c38.61,-0.67 63.64,-19.17 75.26,-55.5 11.62,-36.33 -2.41,-57.5 -42.07,-63.67l-253.33 0 -31.28 118.67z"/>
  <path class="fil5" d="M376.72 2349.24l122.76 -465.33c44.44,-140 140.91,-213 289.25,-219.17l231.42 0.5c132.69,9 183.81,81.5 153.41,217.17l-123.5 467.83 -181.67 0 55.09 -208 -303.59 -1.5 -54.67 208.5 -188.5 0zm308.85 -450.67l-19.77 72.83 303.17 0 15.7 -57.17c18.46,-52.67 7.96,-82.17 -31.36,-88.33l-183.75 0.5c-49.02,1.17 -76.98,25.33 -83.99,72.17zm1244.77 -230.5l-181.03 684.67 -462.33 0c-134.25,2.5 -185.53,-70 -153.8,-217.83l123.26 -466.33 181.17 0 -115.37 427.33c-15.4,44.17 -2.62,64.83 38.68,62l251.83 0 129.02 -489.33 188.58 -0.5zm771.94 -1l-50.88 193.5 -308.48 0.59 -125.71 491.97 -206.69 0.13 127.02 -493.61 -227 -0.09 51.21 -192.5 740.52 0zm362.17 694l-324.33 0c-144.25,0.5 -185.24,-115.5 -123.11,-348.17 61.07,-235.33 168.13,-353.67 321.34,-355l266.08 0.5c160.33,-3 208.87,110.67 145.81,340.83 -49.87,238.17 -145.14,358.83 -285.8,361.83zm-278.61 -237.33c4.72,31.17 21.66,49.83 51.04,55.67l191.41 -0.5c33.1,-3.67 58.37,-18.5 75.63,-44.5 18.98,-18.17 37.27,-62.67 55.05,-133.5 17.94,-70.83 20.34,-116 7.7,-135.5 -11.98,-20.5 -33.9,-32.17 -65.57,-35.17l-147.5 0c-43.21,3.33 -76.77,24 -101,62 -14.56,17.67 -30.4,57.33 -47.39,119.33 -17,62 -23.48,99.5 -19.38,112.17zm1054.42 -456.17l473.67 0c139.26,23.83 194.56,101.33 165.9,232.5 -17.57,96 -68.19,172 -151.53,228l58.77 225.17 -228 0 -57.55 -215.33 -181.17 0 -55.88 212.83 -205.08 0.5 180.87 -683.67zm131.19 289.67l251.42 0.5c38.61,-0.67 63.64,-19.17 75.26,-55.5 11.62,-36.33 -2.41,-57.5 -42.07,-63.67l-253.33 0 -31.28 118.67zm1106.77 394l-481.33 0c-136.66,-8.17 -176.34,-122 -119.2,-341.5 57.33,-219.67 161.43,-333.17 311.99,-340.67l468.33 0 -43.87 166 -415.08 0.5c-34.95,-1.33 -57.4,7.5 -67.31,26.33l-26.28 58.67 486.75 0.5 -44.38 164 -482.7 -1.83 -5.81 38.5c-3.99,32.5 4.78,50.17 26.54,52.67l439.06 -0.33 -46.7 177.17zm215.71 -683.67l474.17 0c148.11,7.5 202.3,85.67 162.41,234.5 -39.87,148.67 -131.26,227.33 -274.15,235.83l-281.83 0 -56.38 212.83 -204.58 0.5 180.37 -683.67zm131.19 289.67l253.67 -1c37.28,0.33 61.89,-17.67 73.52,-54 11.62,-36.33 -2.58,-57.5 -42.57,-63.67l-253.33 0 -31.28 118.67zm416.76 392l122.76 -465.33c44.44,-140 140.91,-213 289.25,-219.17l231.42 0.5c132.69,9 183.81,81.5 153.41,217.17l-123.5 467.83 -181.67 0 55.09 -208 -303.59 -1.5 -54.67 208.5 -188.5 0zm308.85 -450.67l-19.77 72.83 303.17 0 15.7 -57.17c18.46,-52.67 7.96,-82.17 -31.36,-88.33l-183.75 0.5c-49.02,1.17 -76.98,25.33 -83.99,72.17zm580.19 -230l199.67 0 -179.87 683.67 -204.17 0 184.37 -683.67zm235.5 -1l473.67 0c139.26,23.83 194.56,101.33 165.9,232.5 -17.57,96 -68.19,172 -151.53,228l58.77 225.17 -228 0 -57.55 -215.33 -181.17 0 -55.88 212.83 -205.08 0.5 180.87 -683.67zm131.19 289.67l251.42 0.5c38.61,-0.67 63.64,-19.17 75.26,-55.5 11.62,-36.33 -2.41,-57.5 -42.07,-63.67l-253.33 0 -31.28 118.67z"/>
  <path class="fil2" d="M1074.18 2638.91l28.98 7.33c-6.06,23.73 -17.01,41.86 -32.74,54.39 -15.79,12.48 -35.04,18.69 -57.85,18.69 -23.58,0 -42.73,-4.79 -57.5,-14.36 -14.77,-9.63 -26.02,-23.53 -33.71,-41.71 -7.69,-18.23 -11.56,-37.79 -11.56,-58.67 0,-22.76 4.33,-42.62 13.04,-59.58 8.71,-16.96 21.08,-29.84 37.18,-38.65 16.04,-8.81 33.71,-13.19 53.01,-13.19 21.9,0 40.28,5.55 55.2,16.7 14.92,11.15 25.31,26.79 31.17,47l-28.47 6.72c-5.09,-15.94 -12.43,-27.5 -22.1,-34.78 -9.63,-7.28 -21.75,-10.9 -36.41,-10.9 -16.81,0 -30.81,4.02 -42.11,12.07 -11.31,8.1 -19.25,18.89 -23.78,32.49 -4.58,13.55 -6.87,27.55 -6.87,41.96 0,18.64 2.7,34.83 8.09,48.73 5.45,13.85 13.85,24.24 25.31,31.12 11.46,6.87 23.83,10.29 37.18,10.29 16.19,0 29.89,-4.69 41.15,-14 11.26,-9.37 18.84,-23.28 22.81,-41.66z"/>
  <path class="fil2" d="M1130 2609.07c0,-36.31 9.73,-64.73 29.23,-85.25 19.5,-20.52 44.66,-30.81 75.52,-30.81 20.17,0 38.4,4.84 54.59,14.46 16.2,9.68 28.57,23.12 37.07,40.39 8.5,17.21 12.73,36.82 12.73,58.67 0,22.2 -4.43,42.06 -13.39,59.53 -8.96,17.52 -21.64,30.76 -38.04,39.77 -16.45,9.02 -34.12,13.5 -53.11,13.5 -20.63,0 -39.01,-4.94 -55.2,-14.92 -16.24,-9.93 -28.52,-23.53 -36.87,-40.74 -8.35,-17.16 -12.53,-35.39 -12.53,-54.59zm29.84 0.46c0,26.38 7.08,47.11 21.24,62.28 14.21,15.17 31.98,22.76 53.37,22.76 21.8,0 39.72,-7.64 53.78,-22.97 14.06,-15.33 21.13,-37.07 21.13,-65.24 0,-17.77 -3.06,-33.31 -9.07,-46.6 -6.01,-13.29 -14.82,-23.58 -26.38,-30.91 -11.61,-7.28 -24.6,-10.95 -39.01,-10.95 -20.52,0 -38.15,7.03 -52.91,21.13 -14.77,14.06 -22.15,37.58 -22.15,70.48z"/>
  <path class="fil2" d="M1375.56 2715.6l0 -218.73 43.59 0 51.74 154.87c4.79,14.41 8.3,25.21 10.44,32.39 2.5,-7.94 6.37,-19.66 11.67,-35.09l52.35 -152.17 38.96 0 0 218.73 -27.91 0 0 -183.08 -63.56 183.08 -26.13 0 -63.25 -186.19 0 186.19 -27.91 0z"/>
  <path class="fil2" d="M1631 2715.6l0 -218.73 82.5 0c14.51,0 25.61,0.72 33.26,2.09 10.74,1.78 19.76,5.19 27.04,10.24 7.23,4.99 13.09,12.07 17.52,21.08 4.43,9.06 6.62,19 6.62,29.84 0,18.59 -5.91,34.37 -17.72,47.26 -11.87,12.83 -33.26,19.3 -64.17,19.3l-56.12 0 0 88.92 -28.93 0zm28.93 -114.74l56.58 0c18.69,0 31.98,-3.46 39.82,-10.44 7.84,-6.98 11.76,-16.75 11.76,-29.38 0,-9.17 -2.29,-17.01 -6.93,-23.53 -4.63,-6.52 -10.69,-10.8 -18.28,-12.89 -4.89,-1.27 -13.85,-1.93 -26.99,-1.93l-55.97 0 0 78.17z"/>
  <polygon class="fil2" points="1833.59,2715.6 1833.59,2496.87 1862.57,2496.87 1862.57,2689.78 1970.28,2689.78 1970.28,2715.6 "/>
  <polygon class="fil2" points="2005.36,2715.6 2005.36,2496.87 2163.49,2496.87 2163.49,2522.7 2034.29,2522.7 2034.29,2589.66 2155.29,2589.66 2155.29,2615.33 2034.29,2615.33 2034.29,2689.78 2168.58,2689.78 2168.58,2715.6 "/>
  <polygon class="fil2" points="2264.22,2715.6 2264.22,2522.7 2192.16,2522.7 2192.16,2496.87 2365.51,2496.87 2365.51,2522.7 2293.15,2522.7 2293.15,2715.6 "/>
  <polygon class="fil2" points="2395.81,2715.6 2395.81,2496.87 2553.94,2496.87 2553.94,2522.7 2424.74,2522.7 2424.74,2589.66 2545.74,2589.66 2545.74,2615.33 2424.74,2615.33 2424.74,2689.78 2559.03,2689.78 2559.03,2715.6 "/>
  <path class="fil2" d="M2727.9 2715.6l84.03 -218.73 31.17 0 89.53 218.73 -33 0 -25.52 -66.26 -91.46 0 -23.99 66.26 -30.76 0zm63.09 -89.83l74.2 0 -22.87 -60.55c-6.93,-18.38 -12.12,-33.51 -15.48,-45.37 -2.8,14.06 -6.72,27.96 -11.81,41.81l-24.04 64.11z"/>
  <path class="fil2" d="M3099.25 2496.87l28.98 0 0 126.4c0,21.95 -2.49,39.41 -7.48,52.35 -4.99,12.93 -13.95,23.43 -26.94,31.52 -12.98,8.15 -30,12.17 -51.08,12.17 -20.47,0 -37.28,-3.51 -50.26,-10.59 -13.04,-7.03 -22.35,-17.26 -27.91,-30.66 -5.6,-13.39 -8.35,-31.63 -8.35,-54.8l0 -126.4 28.93 0 0 126.25c0,19 1.78,33 5.3,41.96 3.51,9.02 9.63,15.94 18.18,20.83 8.61,4.89 19.15,7.33 31.57,7.33 21.29,0 36.46,-4.83 45.53,-14.51 9.01,-9.63 13.54,-28.16 13.54,-55.61l0 -126.25z"/>
  <polygon class="fil2" points="3232.07,2715.6 3232.07,2522.7 3160.01,2522.7 3160.01,2496.87 3333.36,2496.87 3333.36,2522.7 3260.99,2522.7 3260.99,2715.6 "/>
  <path class="fil2" d="M3348.74 2609.07c0,-36.31 9.73,-64.73 29.23,-85.25 19.5,-20.52 44.66,-30.81 75.52,-30.81 20.17,0 38.4,4.84 54.59,14.46 16.2,9.68 28.57,23.12 37.07,40.39 8.5,17.21 12.73,36.82 12.73,58.67 0,22.2 -4.43,42.06 -13.39,59.53 -8.96,17.52 -21.64,30.76 -38.04,39.77 -16.45,9.02 -34.12,13.5 -53.11,13.5 -20.63,0 -39.01,-4.94 -55.2,-14.92 -16.24,-9.93 -28.52,-23.53 -36.87,-40.74 -8.35,-17.16 -12.53,-35.39 -12.53,-54.59zm29.84 0.46c0,26.38 7.08,47.11 21.24,62.28 14.21,15.17 31.98,22.76 53.37,22.76 21.8,0 39.72,-7.64 53.78,-22.97 14.06,-15.33 21.13,-37.07 21.13,-65.24 0,-17.77 -3.06,-33.31 -9.07,-46.6 -6.01,-13.29 -14.82,-23.58 -26.38,-30.91 -11.61,-7.28 -24.6,-10.95 -39.01,-10.95 -20.52,0 -38.15,7.03 -52.91,21.13 -14.77,14.06 -22.15,37.58 -22.15,70.48z"/>
  <path class="fil2" d="M3594.3 2715.6l0 -218.73 43.59 0 51.74 154.87c4.79,14.41 8.3,25.21 10.44,32.39 2.5,-7.94 6.37,-19.66 11.67,-35.09l52.35 -152.17 38.96 0 0 218.73 -27.91 0 0 -183.08 -63.56 183.08 -26.13 0 -63.25 -186.19 0 186.19 -27.91 0z"/>
  <path class="fil2" d="M3840.93 2609.07c0,-36.31 9.73,-64.73 29.23,-85.25 19.5,-20.52 44.66,-30.81 75.52,-30.81 20.17,0 38.4,4.84 54.59,14.46 16.2,9.68 28.57,23.12 37.07,40.39 8.5,17.21 12.73,36.82 12.73,58.67 0,22.2 -4.43,42.06 -13.39,59.53 -8.96,17.52 -21.64,30.76 -38.04,39.77 -16.45,9.02 -34.12,13.5 -53.11,13.5 -20.63,0 -39.01,-4.94 -55.2,-14.92 -16.24,-9.93 -28.52,-23.53 -36.87,-40.74 -8.35,-17.16 -12.53,-35.39 -12.53,-54.59zm29.84 0.46c0,26.38 7.08,47.11 21.24,62.28 14.21,15.17 31.98,22.76 53.37,22.76 21.8,0 39.72,-7.64 53.78,-22.97 14.06,-15.33 21.13,-37.07 21.13,-65.24 0,-17.77 -3.06,-33.31 -9.07,-46.6 -6.01,-13.29 -14.82,-23.58 -26.38,-30.91 -11.61,-7.28 -24.6,-10.95 -39.01,-10.95 -20.52,0 -38.15,7.03 -52.91,21.13 -14.77,14.06 -22.15,37.58 -22.15,70.48z"/>
  <polygon class="fil2" points="4143.07,2715.6 4143.07,2522.7 4071.02,2522.7 4071.02,2496.87 4244.37,2496.87 4244.37,2522.7 4172,2522.7 4172,2715.6 "/>
  <polygon class="fil2" points="4279,2715.6 4279,2496.87 4307.92,2496.87 4307.92,2715.6 "/>
  <path class="fil2" d="M4421.43 2715.6l-84.74 -218.73 31.37 0 56.83 158.89c4.58,12.73 8.4,24.7 11.46,35.8 3.41,-11.92 7.33,-23.83 11.81,-35.8l59.07 -158.89 29.54 0 -85.66 218.73 -29.69 0z"/>
  <polygon class="fil2" points="4563.37,2715.6 4563.37,2496.87 4721.49,2496.87 4721.49,2522.7 4592.29,2522.7 4592.29,2589.66 4713.29,2589.66 4713.29,2615.33 4592.29,2615.33 4592.29,2689.78 4726.58,2689.78 4726.58,2715.6 "/>
  <path class="fil2" d="M4926.52 2645.32l27.3 -2.39c1.27,10.95 4.28,19.91 9.01,26.94 4.74,7.03 12.07,12.68 22,17.01 9.93,4.33 21.13,6.46 33.56,6.46 11.05,0 20.78,-1.63 29.23,-4.89 8.46,-3.31 14.77,-7.8 18.89,-13.5 4.13,-5.76 6.21,-11.97 6.21,-18.74 0,-6.88 -1.98,-12.83 -6.01,-17.98 -3.97,-5.14 -10.54,-9.42 -19.66,-12.88 -5.91,-2.29 -18.84,-5.86 -38.96,-10.69 -20.07,-4.84 -34.17,-9.37 -42.22,-13.65 -10.44,-5.45 -18.23,-12.27 -23.37,-20.37 -5.09,-8.1 -7.64,-17.16 -7.64,-27.25 0,-11 3.11,-21.33 9.37,-30.91 6.26,-9.63 15.43,-16.91 27.45,-21.9 12.07,-4.94 25.41,-7.44 40.13,-7.44 16.24,0 30.5,2.6 42.93,7.84 12.37,5.2 21.9,12.89 28.57,23.02 6.62,10.13 10.24,21.64 10.74,34.48l-27.75 2.09c-1.53,-13.8 -6.57,-24.29 -15.18,-31.32 -8.61,-7.08 -21.29,-10.59 -38.09,-10.59 -17.52,0 -30.25,3.21 -38.3,9.62 -8,6.42 -12.02,14.16 -12.02,23.17 0,7.89 2.85,14.36 8.51,19.4 5.6,5.09 20.11,10.29 43.64,15.58 23.53,5.35 39.67,9.98 48.43,13.96 12.73,5.91 22.15,13.34 28.21,22.3 6.06,9.02 9.07,19.41 9.07,31.12 0,11.66 -3.31,22.61 -9.98,32.9 -6.67,10.29 -16.25,18.28 -28.72,24.04 -12.48,5.7 -26.53,8.56 -42.11,8.56 -19.81,0 -36.41,-2.85 -49.76,-8.66 -13.39,-5.75 -23.88,-14.41 -31.52,-26.02 -7.59,-11.56 -11.61,-24.7 -11.97,-39.31z"/>
  <polygon class="fil2" points="5140.77,2715.6 5140.77,2496.87 5298.89,2496.87 5298.89,2522.7 5169.69,2522.7 5169.69,2589.66 5290.69,2589.66 5290.69,2615.33 5169.69,2615.33 5169.69,2689.78 5303.98,2689.78 5303.98,2715.6 "/>
  <path class="fil2" d="M5344.42 2715.6l0 -218.73 96.96 0c19.5,0 34.32,1.99 44.46,5.91 10.13,3.92 18.23,10.85 24.34,20.78 6.06,9.98 9.07,20.98 9.07,33 0,15.54 -4.99,28.57 -15.07,39.22 -10.03,10.64 -25.56,17.41 -46.55,20.32 7.69,3.67 13.5,7.28 17.47,10.9 8.45,7.74 16.45,17.47 24.04,29.08l38.04 59.53 -36.41 0 -28.93 -45.53c-8.45,-13.09 -15.43,-23.17 -20.93,-30.1 -5.45,-6.98 -10.34,-11.87 -14.67,-14.61 -4.33,-2.8 -8.71,-4.74 -13.19,-5.86 -3.31,-0.66 -8.66,-1.02 -16.14,-1.02l-33.56 0 0 97.11 -28.93 0zm28.93 -122.17l62.23 0c13.19,0 23.58,-1.38 31.02,-4.13 7.48,-2.75 13.14,-7.13 17.01,-13.14 3.87,-6.01 5.81,-12.53 5.81,-19.61 0,-10.33 -3.72,-18.84 -11.26,-25.51 -7.48,-6.67 -19.35,-9.98 -35.6,-9.98l-69.2 0 0 72.37z"/>
  <path class="fil2" d="M5621.61 2715.6l-84.74 -218.73 31.37 0 56.83 158.89c4.58,12.73 8.4,24.7 11.46,35.8 3.41,-11.92 7.33,-23.83 11.81,-35.8l59.07 -158.89 29.54 0 -85.66 218.73 -29.69 0z"/>
  <polygon class="fil2" points="5767.87,2715.6 5767.87,2496.87 5796.8,2496.87 5796.8,2715.6 "/>
  <path class="fil2" d="M6003.86 2638.91l28.98 7.33c-6.06,23.73 -17.01,41.86 -32.74,54.39 -15.79,12.48 -35.04,18.69 -57.85,18.69 -23.58,0 -42.73,-4.79 -57.5,-14.36 -14.77,-9.63 -26.02,-23.53 -33.71,-41.71 -7.69,-18.23 -11.56,-37.79 -11.56,-58.67 0,-22.76 4.33,-42.62 13.04,-59.58 8.71,-16.96 21.08,-29.84 37.18,-38.65 16.04,-8.81 33.71,-13.19 53.01,-13.19 21.9,0 40.28,5.55 55.2,16.7 14.92,11.15 25.31,26.79 31.17,47l-28.47 6.72c-5.09,-15.94 -12.43,-27.5 -22.1,-34.78 -9.63,-7.28 -21.75,-10.9 -36.41,-10.9 -16.81,0 -30.81,4.02 -42.11,12.07 -11.31,8.1 -19.25,18.89 -23.78,32.49 -4.58,13.55 -6.87,27.55 -6.87,41.96 0,18.64 2.7,34.83 8.09,48.73 5.45,13.85 13.85,24.24 25.31,31.12 11.46,6.87 23.83,10.29 37.18,10.29 16.19,0 29.89,-4.69 41.15,-14 11.26,-9.37 18.84,-23.28 22.81,-41.66z"/>
  <polygon class="fil2" points="6069.1,2715.6 6069.1,2496.87 6227.22,2496.87 6227.22,2522.7 6098.02,2522.7 6098.02,2589.66 6219.02,2589.66 6219.02,2615.33 6098.02,2615.33 6098.02,2689.78 6232.31,2689.78 6232.31,2715.6 "/>
 </g>
</svg>
