<svg width="32" height="32" viewBox="0 0 32 32" fill="none" xmlns="http://www.w3.org/2000/svg">
<g clip-path="url(#clip0_1_128)">
<path d="M16 0C7.18944 0 0 7.19056 0 16C0 24.8106 7.19056 32 16 32C24.8106 32 32 24.8094 32 16C32 7.18937 24.8094 0 16 0ZM16 30.125C8.21144 30.125 1.875 23.7886 1.875 16C1.875 8.21144 8.21144 1.875 16 1.875C23.7886 1.875 30.125 8.21144 30.125 16C30.125 23.7886 23.7886 30.125 16 30.125Z" fill="#D90429"/>
<path d="M16 3.8125C9.27981 3.8125 3.8125 9.27981 3.8125 16C3.8125 22.7202 9.27981 28.1875 16 28.1875C22.7202 28.1875 28.1875 22.7202 28.1875 16C28.1875 9.27981 22.7202 3.8125 16 3.8125ZM18.8125 6.07737C20.4777 6.55 21.9723 7.43194 23.1811 8.60644L20.2188 10.3167C19.5928 10.6779 18.8125 10.2265 18.8125 9.50481V6.07737ZM13.1875 6.07737V9.50481C13.1875 10.2261 12.4076 10.6782 11.7812 10.3167L8.81888 8.60637C10.0278 7.43194 11.5223 6.55 13.1875 6.07737ZM5.6875 16C5.6875 15.129 5.7965 14.283 6.00081 13.4746L8.96875 15.1881C9.59387 15.5491 9.59444 16.4507 8.96875 16.8119L6.00081 18.5255C5.7965 17.717 5.6875 16.8711 5.6875 16ZM13.1875 25.9226C11.5223 25.45 10.0278 24.5681 8.81888 23.3936L11.7812 21.6833C12.4065 21.3224 13.1875 21.7727 13.1875 22.4951V25.9226ZM18.8125 25.9226V22.4952C18.8125 21.7728 19.5934 21.3223 20.2188 21.6833L23.1811 23.3936C21.9723 24.5681 20.4777 25.45 18.8125 25.9226ZM24.4219 21.9449L21.1562 20.0595C19.2814 18.9771 16.9375 20.3281 16.9375 22.4952V26.2694C16.6286 26.2974 16.3161 26.3125 16 26.3125C15.6839 26.3125 15.3714 26.2974 15.0625 26.2694V22.4952C15.0625 20.3304 12.7206 18.9759 10.8438 20.0595L7.57812 21.9449C7.21794 21.4361 6.903 20.8932 6.63837 20.3224L9.90625 18.4357C11.7811 17.3533 11.7831 14.6478 9.90625 13.5643L6.63837 11.6776C6.903 11.1068 7.21788 10.5639 7.57812 10.0551L10.8438 11.9405C12.7186 13.0229 15.0625 11.6719 15.0625 9.50481V5.73056C15.3714 5.70256 15.6839 5.6875 16 5.6875C16.3161 5.6875 16.6286 5.70256 16.9375 5.73056V9.50481C16.9375 11.6697 19.2795 13.0241 21.1562 11.9405L24.4219 10.0551C24.7821 10.5639 25.097 11.1067 25.3616 11.6776L22.0938 13.5643C20.2189 14.6468 20.217 17.3521 22.0938 18.4357L25.3616 20.3224C25.097 20.8932 24.7821 21.4361 24.4219 21.9449ZM23.0312 16.8119C22.4062 16.4511 22.4055 15.5494 23.0312 15.1881L25.9992 13.4746C26.2035 14.283 26.3125 15.1289 26.3125 16C26.3125 16.8711 26.2035 17.717 25.9992 18.5254L23.0312 16.8119Z" fill="#D90429"/>
<path d="M16 13.1875C14.4492 13.1875 13.1875 14.4492 13.1875 16C13.1875 17.5508 14.4492 18.8125 16 18.8125C17.5508 18.8125 18.8125 17.5508 18.8125 16C18.8125 14.4492 17.5508 13.1875 16 13.1875ZM16 16.9375C15.4831 16.9375 15.0625 16.5169 15.0625 16C15.0625 15.4831 15.4831 15.0625 16 15.0625C16.5169 15.0625 16.9375 15.4831 16.9375 16C16.9375 16.5169 16.5169 16.9375 16 16.9375Z" fill="#D90429"/>
</g>
<defs>
<clipPath id="clip0_1_128">
<rect width="32" height="32" fill="white"/>
</clipPath>
</defs>
</svg>
