<svg width="32" height="32" viewBox="0 0 32 32" fill="none" xmlns="http://www.w3.org/2000/svg">
<path d="M13.7157 15.2524C13.7157 13.825 12.5544 12.6638 11.1271 12.6638H9.4215L7.61234 6.49012C7.20188 5.08978 5.89609 4.1118 4.43692 4.1118H0V27.8883H0.939826C3.31295 27.8883 5.29554 26.1876 5.73507 23.9412H15.6554V22.0615H13.7157V15.2524ZM1.87965 5.99139H4.43685C5.06716 5.99139 5.63125 6.41381 5.8085 7.01868L7.46278 12.6637H1.87965V5.99139ZM1.87965 25.8582V20.1445C3.07906 20.54 3.94702 21.6712 3.94702 23.0014C3.94702 24.3315 3.07906 25.4628 1.87965 25.8582V25.8582ZM5.73507 22.0615C5.35506 20.1195 3.82171 18.5861 1.87965 18.2061V14.5434H11.1271C11.518 14.5434 11.836 14.8615 11.836 15.2524V17.3627H8.71757V19.2423H11.836V22.0615H5.73507Z" fill="#D90429"/>
<path d="M19.7905 10.6274C20.2821 10.6274 20.753 10.1951 20.7303 9.68757C20.7075 9.17837 20.3173 8.74774 19.7905 8.74774C19.2989 8.74774 18.8279 9.18 18.8506 9.68757C18.8735 10.1968 19.2636 10.6274 19.7905 10.6274Z" fill="#D90429"/>
<path d="M28.2485 7.02492C28.7401 7.02492 29.211 6.59266 29.1883 6.08509C29.1655 5.57589 28.7753 5.14526 28.2485 5.14526C27.7569 5.14526 27.2859 5.57752 27.3087 6.08509C27.3315 6.59429 27.7216 7.02492 28.2485 7.02492Z" fill="#D90429"/>
<path d="M27.7786 26.7603C28.2702 26.7603 28.7412 26.328 28.7185 25.8205C28.6956 25.3113 28.3055 24.8806 27.7786 24.8806C27.287 24.8806 26.8161 25.3129 26.8388 25.8205C26.8616 26.3297 27.2518 26.7603 27.7786 26.7603Z" fill="#D90429"/>
<path d="M17.7705 23.7896L18.1599 22.1995C18.164 22.1825 18.58 20.4856 18.9818 18.9872C19.2429 18.0133 19.3312 16.9405 19.2441 15.7986C19.2375 15.7105 19.2341 15.6216 19.2341 15.534C19.2341 13.7651 20.5743 12.3033 22.2926 12.1107C22.7231 10.6967 24.0458 9.65952 25.5892 9.65952C26.0426 9.65952 26.4869 9.74799 26.9004 9.91848C27.4718 9.60495 28.1231 9.4589 28.7881 9.50339C30.5332 9.61905 31.9123 11.0244 31.996 12.7725C32.0324 13.5335 31.8151 14.2804 31.3891 14.898C31.4786 15.208 31.5247 15.5307 31.5247 15.8536C31.5247 17.239 30.7129 18.4484 29.5031 18.9929C29.4611 20.8562 27.9323 22.3591 26.0591 22.3591C25.925 22.3591 25.7899 22.3513 25.6575 22.3359C24.191 22.1649 22.8006 22.276 21.5245 22.6658C20.3847 23.014 19.3502 23.321 19.34 23.324L17.7705 23.7896ZM22.6789 13.9688C21.8159 13.9688 21.1137 14.671 21.1137 15.534C21.1137 15.5743 21.1153 15.6154 21.1184 15.656C21.2215 17.0098 21.1136 18.2945 20.7973 19.474C20.656 20.0011 20.5127 20.5537 20.3867 21.0472C20.5762 20.9898 20.7742 20.9296 20.9754 20.8681C22.5012 20.402 24.1497 20.2678 25.8752 20.4688C25.9357 20.4759 25.9976 20.4795 26.0591 20.4795C26.9222 20.4795 27.6243 19.7773 27.6243 18.9143C27.6243 18.7907 27.6094 18.6664 27.58 18.5447L27.3429 17.5627L28.3394 17.397C29.096 17.2712 29.6451 16.6221 29.6451 15.8536C29.6451 15.6056 29.5884 15.3681 29.4767 15.1478L29.1665 14.536L29.6546 14.054C29.9753 13.7373 30.1401 13.3141 30.1185 12.8623C30.0811 12.0821 29.4421 11.4305 28.6637 11.3788C28.2597 11.3526 27.8679 11.4778 27.5592 11.7329L27.0248 12.1744L26.4452 11.7944C26.1906 11.6274 25.8946 11.5392 25.5892 11.5392C24.7406 11.5392 24.0389 12.2294 24.0249 13.0778L24.0069 14.165L22.9337 13.9898C22.8484 13.976 22.7627 13.9688 22.6789 13.9688V13.9688Z" fill="#D90429"/>
</svg>
